<?xml version="1.0" encoding="UTF-8" standalone="no"?>
<!-- Created with Inkscape (http://www.inkscape.org/) -->

<svg
   xmlns:dc="http://purl.org/dc/elements/1.1/"
   xmlns:cc="http://creativecommons.org/ns#"
   xmlns:rdf="http://www.w3.org/1999/02/22-rdf-syntax-ns#"
   xmlns:svg="http://www.w3.org/2000/svg"
   xmlns="http://www.w3.org/2000/svg"
   xmlns:sodipodi="http://sodipodi.sourceforge.net/DTD/sodipodi-0.dtd"
   xmlns:inkscape="http://www.inkscape.org/namespaces/inkscape"
   sodipodi:docname="loguito.svg"
   inkscape:version="0.91 r13725"
   version="1.1"
   id="svg2"
   viewBox="0 0 600.00005 900.00002"
   height="900"
   width="600">
  <sodipodi:namedview
     inkscape:window-maximized="1"
     inkscape:window-y="-8"
     inkscape:window-x="-8"
     inkscape:window-height="705"
     inkscape:window-width="1366"
     units="px"
     showgrid="false"
     inkscape:current-layer="layer1"
     inkscape:document-units="px"
     inkscape:cy="520.75616"
     inkscape:cx="350.82012"
     inkscape:zoom="0.49497475"
     inkscape:pageshadow="2"
     inkscape:pageopacity="0.0"
     borderopacity="1.0"
     bordercolor="#666666"
     pagecolor="#ffffff"
     id="base" />
  <defs
     id="defs4">
    <inkscape:path-effect
       effect="bend_path"
       id="path-effect5755"
       is_visible="true"
       bendpath="m 134.84902,335.97078 c 119.89444,-22.51128 228.52092,-17.8509 335.11156,0"
       prop_scale="1"
       scale_y_rel="false"
       vertical="false"
       bendpath-nodetypes="cc" />
    <inkscape:path-effect
       effect="bend_path"
       id="path-effect5753"
       is_visible="true"
       bendpath="m 21.428564,349.12147 c 196.091256,-45.30097 380.131436,-32.35511 560.155916,0"
       prop_scale="1"
       scale_y_rel="false"
       vertical="false"
       bendpath-nodetypes="cc" />
    <inkscape:path-effect
       effect="bend_path"
       id="path-effect5614"
       is_visible="false"
       bendpath="m 21.428564,349.12147 c 194.593216,-59.84675 378.941176,-41.82962 560.155916,0"
       prop_scale="1"
       scale_y_rel="false"
       vertical="false"
       bendpath-nodetypes="cc" />
    <inkscape:path-effect
       effect="skeletal"
       id="path-effect5538"
       is_visible="false"
       pattern="M 0,0 1,0"
       copytype="single_stretched"
       prop_scale="1"
       scale_y_rel="false"
       spacing="0"
       normal_offset="0"
       tang_offset="0"
       prop_units="false"
       vertical_pattern="false"
       fuse_tolerance="0" />
    <inkscape:path-effect
       effect="bend_path"
       id="path-effect5533"
       is_visible="true"
       bendpath="m 21.428564,349.12147 560.155916,0"
       prop_scale="1"
       scale_y_rel="false"
       vertical="false" />
    <inkscape:path-effect
       effect="bend_path"
       id="path-effect5524"
       is_visible="true"
       bendpath="m 86.575492,338.43336 426.054238,0"
       prop_scale="1"
       scale_y_rel="false"
       vertical="false" />
    <inkscape:path-effect
       effect="bend_path"
       id="path-effect5521"
       is_visible="false"
       bendpath="m 134.84902,335.97078 c 116.30446,-21.4695 226.85298,-16.07796 335.11156,0"
       prop_scale="1"
       scale_y_rel="false"
       vertical="false"
       bendpath-nodetypes="cc" />
    <inkscape:path-effect
       fuse_tolerance="0"
       vertical_pattern="false"
       prop_units="false"
       tang_offset="0"
       normal_offset="0"
       spacing="0"
       scale_y_rel="false"
       prop_scale="1"
       copytype="single_stretched"
       pattern="M 0,0 1,0"
       is_visible="false"
       id="path-effect4250"
       effect="skeletal" />
    <inkscape:path-effect
       crossing_points_vector=""
       switcher_size="15"
       add_other_stroke_width="true"
       add_stroke_width="true"
       prop_to_stroke_width="true"
       interruption_width="3"
       is_visible="false"
       id="path-effect4248"
       effect="knot" />
    <inkscape:path-effect
       bendpath-nodetypes="cc"
       vertical="false"
       scale_y_rel="false"
       prop_scale="1"
       bendpath="m 197.31725,369.70471 c 73.7177,-83.68373 139.067,-67.82431 202.88087,0"
       is_visible="true"
       id="path-effect4202"
       effect="bend_path" />
    <inkscape:path-effect
       bendpath-nodetypes="cc"
       vertical="false"
       scale_y_rel="false"
       prop_scale="1"
       bendpath="m 221.37989,420.07303 c 46.06154,-15.19941 90.67116,-14.4276 134.03934,0"
       is_visible="true"
       id="path-effect4200"
       effect="bend_path" />
    <inkscape:path-effect
       bendpath-nodetypes="cc"
       vertical="false"
       scale_y_rel="false"
       prop_scale="1"
       bendpath="m 217.96023,413.0353 c 66.23054,-46.42306 69.31987,-42.14767 135.42579,-3.39673"
       is_visible="false"
       id="path-effect4198"
       effect="bend_path" />
  </defs>
  <metadata
     id="metadata7">
    <rdf:RDF>
      <cc:Work
         rdf:about="">
        <dc:format>image/svg+xml</dc:format>
        <dc:type
           rdf:resource="http://purl.org/dc/dcmitype/StillImage" />
        <dc:title />
      </cc:Work>
    </rdf:RDF>
  </metadata>
  <g
     transform="translate(0,-152.36195)"
     id="layer1"
     inkscape:groupmode="layer"
     inkscape:label="Capa 1">
    <g
       transform="translate(22.223355,111.11679)"
       id="g4223"
       inkscape:transform-center-x="-612.15264"
       inkscape:transform-center-y="-224.25407">
      <path
         sodipodi:type="star"
         style="fill:#2ca089;fill-opacity:0.94117647;fill-rule:evenodd;stroke:#000000;stroke-width:1.00011587;stroke-linecap:butt;stroke-linejoin:miter;stroke-miterlimit:4;stroke-dasharray:none;stroke-opacity:1"
         id="path4136"
         sodipodi:sides="13"
         sodipodi:cx="177.78685"
         sodipodi:cy="300.80841"
         sodipodi:r1="140.11658"
         sodipodi:r2="123.30259"
         sodipodi:arg1="0.74460448"
         sodipodi:arg2="0.98626545"
         inkscape:flatsided="false"
         inkscape:rounded="0"
         inkscape:randomized="0"
         d="m 280.82242,395.76275 -34.99619,7.87645 -20.9334,29.13012 -34.64795,-9.28929 -32.07305,16.0652 -26.36229,-24.32696 -35.865145,-0.68006 -12.037341,-33.79162 -31.440973,-17.26953 5.045214,-35.51502 -19.81405,-29.90276 20.971971,-29.10237 -3.647967,-35.68562 32.094302,-16.0227 13.353819,-33.29335 35.86422,0.72757 27.29641,-23.27396 31.41807,17.31115 34.98572,-7.92279 19.77442,29.92897 34.66023,9.24339 3.60069,35.69043 26.39449,24.29202 -13.39792,33.27562 12.0821,33.77565 -27.32722,23.23779 z"
         inkscape:transform-center-x="5.4944629"
         inkscape:transform-center-y="-8.3248239"
         transform="matrix(1.4001606,0.35096095,-0.34919182,1.3931024,146.60375,2.3263623)" />
      <g
         id="g4204">
        <path
           sodipodi:type="star"
           style="fill:#374548;fill-opacity:1;fill-rule:evenodd;stroke:#000000;stroke-width:1.00011587;stroke-linecap:butt;stroke-linejoin:miter;stroke-miterlimit:4;stroke-dasharray:none;stroke-opacity:1"
           id="path4134"
           sodipodi:sides="13"
           sodipodi:cx="177.78685"
           sodipodi:cy="300.80841"
           sodipodi:r1="140.11658"
           sodipodi:r2="123.30259"
           sodipodi:arg1="0.74460448"
           sodipodi:arg2="0.98626545"
           inkscape:flatsided="false"
           inkscape:rounded="0"
           inkscape:randomized="0"
           d="m 280.82242,395.76275 -34.99619,7.87645 -20.9334,29.13012 -34.64795,-9.28929 -32.07305,16.0652 -26.36229,-24.32696 -35.865145,-0.68006 -12.037341,-33.79162 -31.440973,-17.26953 5.045214,-35.51502 -19.81405,-29.90276 20.971971,-29.10237 -3.647967,-35.68562 32.094302,-16.0227 13.353819,-33.29335 35.86422,0.72757 27.29641,-23.27396 31.41807,17.31115 34.98572,-7.92279 19.77442,29.92897 34.66023,9.24339 3.60069,35.69043 26.39449,24.29202 -13.39792,33.27562 12.0821,33.77565 -27.32722,23.23779 z"
           inkscape:transform-center-x="12.286761"
           inkscape:transform-center-y="-7.2150125"
           transform="matrix(1.4434761,0,0,1.4361996,31.929684,53.944855)" />
      </g>
      <path
         style="opacity:0.95999995;fill:#374548;fill-opacity:0.94117647;stroke:#cccccc;stroke-width:3.00000024;stroke-miterlimit:4;stroke-dasharray:none;stroke-dashoffset:0;stroke-opacity:1"
         d="M 436.96959,483.1987 A 149.28574,152.85715 0 0 1 287.68385,636.05585 149.28574,152.85715 0 0 1 138.39811,483.1987 149.28574,152.85715 0 0 1 287.68385,330.34155 149.28574,152.85715 0 0 1 436.96959,483.1987 Z"
         id="path4152"
         inkscape:connector-curvature="0" />
      <path
         style="opacity:0.95999995;fill:#374548;fill-opacity:0.94117647;stroke:#cccccc;stroke-width:2.00000024;stroke-miterlimit:4;stroke-dasharray:2.00000023, 12.00000136;stroke-dashoffset:0;stroke-opacity:1"
         d="M 417.07105,481.56099 A 128.67295,135.18819 0 0 1 288.39809,616.74919 128.67295,135.18819 0 0 1 159.72516,481.56099 128.67295,135.18819 0 0 1 288.39809,346.37281 128.67295,135.18819 0 0 1 417.07105,481.56099 Z"
         id="path4154"
         inkscape:connector-curvature="0" />
      <g
         style="font-style:normal;font-weight:normal;font-size:30.00000191px;line-height:125%;font-family:sans-serif;letter-spacing:0px;word-spacing:0px;fill:#899ca2;fill-opacity:0.94117647;stroke:none;stroke-width:1px;stroke-linecap:butt;stroke-linejoin:miter;stroke-opacity:1"
         id="text4158"
         transform="matrix(1.0201214,0.00329069,-0.0037724,1.0045154,-12.715636,56.83977)"
         inkscape:path-effect="#path-effect4202">
        <path
           d="m 212.47594,338.82936 c 3.06279,7.00464 6.33935,13.88492 9.79524,20.64763 -0.89042,0.84292 -1.77533,1.69469 -2.65494,2.55468 -5.46079,-3.12425 -11.0118,-6.13811 -16.63545,-9.04894 3.04709,5.53733 6.19602,10.99812 9.42894,16.38598 -0.83261,0.8803 -1.66068,1.76671 -2.4844,2.65862 -6.85223,-3.31828 -13.7939,-6.49071 -20.7915,-9.53146 0.79448,-0.90945 1.5955,-1.81603 2.40322,-2.71924 5.74429,2.65568 11.44341,5.40158 17.07977,8.24507 -3.24641,-5.40069 -6.41073,-10.87464 -9.47485,-16.4255 0.8417,-0.86935 1.69042,-1.73391 2.5463,-2.59322 5.66267,2.98888 11.24933,6.08258 16.74241,9.28841 -2.98534,-5.61924 -5.8538,-11.31821 -8.58674,-17.10064 0.87019,-0.79355 1.74748,-1.58083 2.632,-2.36139 z"
           id="path4163"
           inkscape:connector-curvature="0"
           inkscape:original-d="m 224.28502,358.79895 -5.66894,21.81152 -3.26661,0 -4.58496,-18.10547 -4.48242,18.10547 -3.19336,0 -5.77148,-21.81152 2.97363,0 4.58496,18.13477 4.51172,-18.13477 2.94433,0 4.55567,18.31055 4.55566,-18.31055 2.8418,0 z" />
        <path
           d="m 243.1398,342.40427 c -4.32586,2.96918 -8.51647,6.20387 -12.58883,9.64842 l -14.04552,-16.68915 c 4.5838,-3.84043 9.35734,-7.49284 14.33762,-10.9016 l 1.45348,2.12078 c -3.91335,2.67928 -7.70038,5.51543 -11.36972,8.48016 l 3.76137,4.6394 c 3.55117,-2.87621 7.20755,-5.62004 10.97777,-8.20318 l 1.45347,2.12078 c -3.70848,2.54167 -7.3085,5.24567 -10.8087,8.08371 l 5.09811,6.28821 c 3.34005,-2.71808 6.76299,-5.29694 10.27748,-7.70831 z"
           id="path4165"
           inkscape:connector-curvature="0"
           inkscape:original-d="m 242.91783,380.61047 -14.37011,0 0,-21.81152 14.37011,0 0,2.57812 -11.46972,0 0,5.97657 11.46972,0 0,2.57812 -11.46972,0 0,8.10059 11.46972,0 0,2.57812 z" />
        <path
           d="m 260.41069,332.44212 c -1.4077,0.65869 -2.80208,1.34861 -4.1812,2.06776 -3.0239,1.57345 -5.98235,3.28474 -8.88018,5.11814 l -11.64419,-18.37254 c 1.03234,-0.65527 2.07334,-1.29988 3.12311,-1.93338 l 9.88621,16.44545 c 2.07215,-1.2415 4.17584,-2.42265 6.31265,-3.53823 1.41246,-0.73861 2.84117,-1.44702 4.28419,-2.12324 z"
           id="path4167"
           inkscape:connector-curvature="0"
           inkscape:original-d="m 261.33092,380.61047 -13.79883,0 0,-21.81152 2.90039,0 0,19.2334 10.89844,0 0,2.57812 z" />
        <path
           d="m 279.50208,324.13007 c -0.50696,0.35592 -0.96292,0.69178 -1.36668,1.00256 -0.39535,0.30959 -0.92253,0.66359 -1.58336,1.07429 -0.56027,0.34285 -1.17757,0.67739 -1.85315,1.00787 -0.66311,0.33704 -1.41377,0.63735 -2.2567,0.90839 -1.58827,0.51071 -3.09014,0.80832 -4.54199,0.88101 -1.44371,0.0598 -2.82098,-0.14234 -4.14967,-0.61857 -1.3,-0.46579 -2.51454,-1.2242 -3.63749,-2.2885 -1.12564,-1.07202 -2.09849,-2.46542 -2.88117,-4.19232 -0.7434,-1.64023 -1.133,-3.22906 -1.13543,-4.78191 -0.002,-1.55101 0.36125,-3.01923 1.11145,-4.39164 0.7263,-1.32967 1.79806,-2.54131 3.21682,-3.60271 1.42998,-1.06533 3.15671,-1.93475 5.15777,-2.5688 1.46421,-0.46395 2.97539,-0.76141 4.51718,-0.8882 1.55248,-0.13002 3.32509,-0.0641 5.27987,0.22778 l 0.75865,3.35491 c -0.0894,0.0201 -0.1788,0.0403 -0.26816,0.0606 -1.68997,-0.6465 -3.34104,-0.98877 -4.91732,-1.03585 -1.57634,-0.0471 -3.20352,0.18977 -4.84996,0.71609 -1.34792,0.43089 -2.49967,1.01706 -3.44399,1.73904 -0.93643,0.70898 -1.67679,1.57817 -2.21589,2.59529 -0.52363,0.99061 -0.78484,2.0978 -0.79168,3.31611 5.3e-4,1.20585 0.29185,2.48181 0.85475,3.83822 0.58832,1.41766 1.3189,2.54705 2.16776,3.39341 0.86011,0.84311 1.75431,1.45522 2.68166,1.84036 0.96905,0.4011 1.9743,0.59738 3.02512,0.59487 1.05813,-0.0153 2.10208,-0.19198 3.14854,-0.52972 1.43892,-0.46441 2.72184,-1.09325 3.8763,-1.90595 1.15381,-0.81224 2.18901,-1.81081 3.12613,-3.00798 0.0739,-0.017 0.14777,-0.0339 0.22167,-0.0508 z"
           id="path4169"
           inkscape:connector-curvature="0"
           inkscape:original-d="m 280.78405,379.02844 q -0.80566,0.35156 -1.46484,0.65918 -0.64453,0.30762 -1.69922,0.64453 -0.89356,0.27832 -1.94824,0.46875 -1.04004,0.20508 -2.29981,0.20508 -2.37305,0 -4.32129,-0.65918 -1.93359,-0.67383 -3.36914,-2.09472 -1.40625,-1.39161 -2.19726,-3.53028 -0.79102,-2.15332 -0.79102,-4.99512 0,-2.69531 0.76172,-4.81933 0.76172,-2.12403 2.19726,-3.58887 1.39161,-1.4209 3.3545,-2.16797 1.97754,-0.74707 4.37988,-0.74707 1.75781,0 3.50098,0.42481 1.75781,0.4248 3.89648,1.49414 l 0,3.44238 -0.21973,0 q -1.80175,-1.50879 -3.57421,-2.19727 -1.77247,-0.68847 -3.79395,-0.68847 -1.65527,0 -2.98828,0.54199 -1.31836,0.52734 -2.3584,1.65527 -1.01074,1.09864 -1.58203,2.78321 -0.55664,1.66992 -0.55664,3.86718 0,2.29981 0.61523,3.95508 0.62989,1.65528 1.61133,2.69531 1.02539,1.08399 2.3877,1.61133 1.37695,0.5127 2.90039,0.5127 2.09472,0 3.92578,-0.71777 1.83105,-0.71778 3.42773,-2.15333 l 0.20508,0 0,3.39844 z" />
        <path
           d="m 301.67557,304.44118 c 0.45905,0.42267 0.86347,0.88434 1.21376,1.3833 0.49515,0.71235 0.88071,1.49676 1.16143,2.35057 0.4913,1.45832 0.64032,3.07927 0.49129,4.86894 -0.14879,1.78682 -0.56861,3.3696 -1.21428,4.75007 -0.36745,0.79476 -0.79302,1.5098 -1.2731,2.14699 -0.34822,0.46102 -0.72542,0.88052 -1.13118,1.25962 -0.99603,0.9374 -2.11984,1.64156 -3.38798,2.13388 -1.25993,0.49308 -2.67421,0.7687 -4.2843,0.85973 -1.57028,0.0888 -3.01575,-0.0327 -4.37644,-0.38751 -1.34891,-0.35551 -2.55766,-0.92595 -3.63675,-1.734 -1.07774,-0.80703 -2.01139,-1.84637 -2.78737,-3.1315 -0.76437,-1.28562 -1.33421,-2.81281 -1.66978,-4.5834 -0.33066,-1.74464 -0.35402,-3.35598 -0.032,-4.84188 0.3199,-1.49358 0.96379,-2.83223 1.95168,-3.99911 0.9446,-1.1098 2.2199,-2.02703 3.82188,-2.71568 1.61402,-0.68978 3.43681,-1.10724 5.43302,-1.22278 2.07408,-0.12004 3.95539,0.0926 5.59827,0.60472 1.65702,0.50276 3.0358,1.26622 4.12182,2.25804 z m -0.68754,8.38101 c 0.11641,-2.83096 -0.55175,-5.039 -2.15166,-6.59789 -1.58844,-1.55758 -3.87086,-2.31751 -6.71908,-2.15354 -2.87269,0.16537 -5.05121,1.18314 -6.44469,2.906 -1.39154,1.72289 -1.80791,3.98863 -1.38623,6.78447 0.42511,2.81864 1.49508,4.8733 3.07428,6.19636 1.58961,1.32314 3.47451,1.87172 5.7632,1.74237 2.288,-0.12931 4.08101,-0.88497 5.49413,-2.37529 1.41206,-1.48743 2.25283,-3.65154 2.37005,-6.50248 z"
           id="path4171"
           inkscape:connector-curvature="0"
           inkscape:original-d="m 301.17468,361.30383 q 1.333,1.46485 2.03613,3.58887 0.71777,2.12402 0.71777,4.81934 0,2.69531 -0.73242,4.83398 -0.71777,2.12402 -2.02148,3.54492 -1.34766,1.47949 -3.19336,2.22656 -1.83106,0.74708 -4.18946,0.74708 -2.2998,0 -4.18945,-0.76172 -1.875,-0.76172 -3.19336,-2.21192 -1.31836,-1.45019 -2.03613,-3.55957 -0.70313,-2.10937 -0.70313,-4.81933 0,-2.66602 0.70313,-4.7754 0.70312,-2.12402 2.05078,-3.63281 1.28906,-1.43555 3.19336,-2.19726 1.91894,-0.76172 4.1748,-0.76172 2.34375,0 4.20411,0.77636 1.875,0.76172 3.17871,2.18262 z m -0.26368,8.40821 q 0,-4.24805 -1.90429,-6.54786 -1.9043,-2.31445 -5.2002,-2.31445 -3.32519,0 -5.22949,2.31445 -1.88965,2.29981 -1.88965,6.54786 0,4.29199 1.93359,6.57714 1.9336,2.27051 5.18555,2.27051 3.25196,0 5.1709,-2.27051 1.93359,-2.28515 1.93359,-6.57714 z" />
        <path
           d="m 328.08207,329.71998 c -0.96491,-0.3752 -1.93301,-0.73551 -2.90396,-1.08017 l 6.22586,-17.73558 c -3.82578,3.18113 -7.42125,6.52093 -10.74631,10.00995 -0.62314,-0.17399 -1.24752,-0.34164 -1.87306,-0.5028 -1.12242,-4.68066 -2.54957,-9.35033 -4.315,-13.9861 l -3.32268,18.43665 c -0.92555,-0.16673 -1.8522,-0.31664 -2.77968,-0.44913 l 3.1182,-21.52249 c 1.71878,0.25177 3.42683,0.54461 5.12329,0.87661 1.71743,4.44765 3.12558,8.92566 4.2541,13.41364 3.15808,-3.33213 6.55439,-6.53349 10.15619,-9.59624 1.65241,0.55251 3.29026,1.13987 4.91266,1.76007 z"
           id="path4173"
           inkscape:connector-curvature="0"
           inkscape:original-d="m 327.95202,380.61047 -2.90039,0 0,-18.79394 -6.06445,12.78808 -1.72852,0 -6.02051,-12.78808 0,18.79394 -2.70996,0 0,-21.81152 3.95508,0 5.81543,12.14355 5.625,-12.14355 4.02832,0 0,21.81152 z" />
        <path
           d="m 347.72848,339.51448 c -0.45924,-0.27964 -0.91986,-0.55662 -1.38188,-0.83088 -4.04696,-2.38677 -8.19998,-4.57583 -12.42963,-6.50049 l 9.0278,-19.91474 c 5.04678,2.28056 9.92152,4.86766 14.59475,7.69463 0.52761,0.31743 1.05319,0.63734 1.57676,0.95968 l -1.34604,2.19755 c -0.51597,-0.31729 -1.03387,-0.63213 -1.55372,-0.94446 -3.56558,-2.15129 -7.24549,-4.16142 -11.02601,-5.9993 l -2.6207,5.38933 c 3.61604,1.75826 7.1472,3.68181 10.57974,5.7396 0.50188,0.3005 1.00198,0.60357 1.50032,0.90917 l -1.34603,2.19755 c -0.49074,-0.30055 -0.98316,-0.59855 -1.47729,-0.89394 -3.37516,-2.01746 -6.84214,-3.90367 -10.38723,-5.62758 l -3.55208,7.30466 c 3.32217,1.61598 6.58753,3.38486 9.78236,5.27557 0.46978,0.27936 0.93807,0.56141 1.40491,0.84611 z"
           id="path4175"
           inkscape:connector-curvature="0"
           inkscape:original-d="m 348.21082,380.61047 -14.37012,0 0,-21.81152 14.37012,0 0,2.57812 -11.46973,0 0,5.97657 11.46973,0 0,2.57812 -11.46973,0 0,8.10059 11.46973,0 0,2.57812 z" />
        <path
           d="m 387.86222,345.87533 c -2.35879,-2.12176 -4.76101,-4.2032 -7.20952,-6.23687 l -12.30232,14.78084 c -0.83297,-0.69537 -1.6702,-1.3833 -2.51183,-2.0634 l 12.06092,-14.96789 c -2.48335,-1.9971 -5.01404,-3.94366 -7.59491,-5.83225 l 1.52117,-2.077 c 6.20277,4.53783 12.1114,9.39739 17.76391,14.47938 z"
           id="path4177"
           inkscape:connector-curvature="0"
           inkscape:original-d="m 378.92859,361.37707 -7.79297,0 0,19.2334 -2.90039,0 0,-19.2334 -7.79297,0 0,-2.57812 18.48633,0 0,2.57812 z" />
        <path
           d="m 404.03087,361.53136 c 0.0361,1.45321 -0.27165,2.87017 -0.91629,4.2508 -0.63684,1.38957 -1.61296,2.69613 -2.92179,3.92757 -1.30845,1.23107 -2.6798,2.12577 -4.10728,2.69177 -1.41289,0.5677 -2.80911,0.81505 -4.18838,0.74701 -1.43132,-0.0654 -2.81558,-0.42796 -4.15841,-1.08508 -1.33561,-0.64944 -2.63278,-1.60442 -3.90549,-2.86488 -1.24088,-1.22893 -2.20036,-2.51657 -2.88361,-3.87666 -0.67502,-1.35198 -1.05087,-2.72114 -1.12645,-4.11611 -0.0756,-1.39435 0.15462,-2.79825 0.69591,-4.21134 0.5494,-1.40485 1.42771,-2.78167 2.64418,-4.11902 1.19765,-1.31666 2.47448,-2.30814 3.84247,-2.96596 1.37398,-0.66474 2.80556,-0.99573 4.29491,-0.9854 1.42048,0.0136 2.87456,0.37363 4.35155,1.08411 1.48542,0.71865 2.88977,1.72976 4.19937,3.02866 1.36043,1.34931 2.38297,2.75377 3.06883,4.19812 0.70134,1.4464 1.06949,2.88099 1.11048,4.29641 z m -6.29304,5.59375 c 2.04553,-1.96184 3.10227,-4.01712 3.13853,-6.18676 0.0432,-2.17268 -0.87917,-4.22369 -2.77818,-6.10712 -1.91631,-1.90058 -3.99089,-2.82009 -6.16894,-2.75815 -2.16766,0.0632 -4.20576,1.14841 -6.14333,3.22108 -1.95537,2.0917 -2.90177,4.21561 -2.87448,6.34271 0.0341,2.12521 0.93154,4.03993 2.6998,5.79167 1.76857,1.75203 3.69455,2.6335 5.8172,2.64054 2.13363,0.008 4.24349,-0.96259 6.3094,-2.94397 z"
           id="path4179"
           inkscape:connector-curvature="0"
           inkscape:original-d="m 397.44422,361.30383 q 1.333,1.46485 2.03613,3.58887 0.71777,2.12402 0.71777,4.81934 0,2.69531 -0.73242,4.83398 -0.71777,2.12402 -2.02148,3.54492 -1.34766,1.47949 -3.19336,2.22656 -1.83106,0.74708 -4.18946,0.74708 -2.2998,0 -4.18945,-0.76172 -1.875,-0.76172 -3.19336,-2.21192 -1.31836,-1.45019 -2.03613,-3.55957 -0.70313,-2.10937 -0.70313,-4.81933 0,-2.66602 0.70313,-4.7754 0.70312,-2.12402 2.05078,-3.63281 1.28906,-1.43555 3.19336,-2.19726 1.91894,-0.76172 4.1748,-0.76172 2.34375,0 4.2041,0.77636 1.875,0.76172 3.17872,2.18262 z m -0.26368,8.40821 q 0,-4.24805 -1.90429,-6.54786 -1.9043,-2.31445 -5.2002,-2.31445 -3.32519,0 -5.22949,2.31445 -1.88965,2.29981 -1.88965,6.54786 0,4.29199 1.93359,6.57714 1.9336,2.27051 5.18555,2.27051 3.25195,0 5.1709,-2.27051 1.93359,-2.28515 1.93359,-6.57714 z" />
      </g>
      <path
         style="opacity:0.95999995;fill:#53676c;fill-opacity:0.94117647;stroke:#cccccc;stroke-width:0;stroke-miterlimit:4;stroke-dasharray:none;stroke-dashoffset:0;stroke-opacity:1"
         d="m 287.58577,386.36314 c -2.81402,4.63619 -5.44492,9.32288 -7.89727,14.0511 -5.18716,1.40713 -10.27188,3.00468 -15.24904,4.77627 3.99596,3.47908 7.80891,7.06778 11.4256,10.75643 -0.0957,5.30638 -0.15557,10.61189 -0.17997,15.91624 4.00689,-2.49368 8.16528,-4.85158 12.47582,-7.05402 0.39386,0.18783 0.78645,0.37699 1.17775,0.56747 3.94518,1.91055 7.76896,3.95228 11.47079,6.11057 -0.14964,-5.29948 -0.34448,-10.59989 -0.58483,-15.90073 3.52061,-3.79301 7.23866,-7.4902 11.14193,-11.08158 -5.04185,-1.63008 -10.18408,-3.08014 -15.4202,-4.33469 -2.0364,-3.64463 -4.18635,-7.26046 -6.45195,-10.8428 -0.6277,-0.99092 -1.26393,-1.97903 -1.90861,-2.96426 0,0 -2e-5,0 -2e-5,0 z m -53.53698,22.24656 c -0.92632,3.42104 -1.78006,6.8439 -2.56258,10.26591 -2.98607,1.66281 -5.91879,3.38657 -8.79662,5.16643 2.98336,1.76808 5.90344,3.59391 8.75631,5.47464 0.72554,3.46543 1.4648,6.92731 2.21769,10.38554 2.28039,-2.21568 4.63198,-4.39433 7.05498,-6.53012 3.16184,0.62492 6.27936,1.32357 9.34697,2.09441 -1.06861,-3.37125 -2.1552,-6.73786 -3.25966,-10.09971 1.52428,-3.06249 3.13448,-6.1098 4.83232,-9.13759 -3.3837,-0.0955 -6.78712,-0.10932 -10.20529,-0.042 -2.3963,-2.56299 -4.85846,-5.08952 -7.3841,-7.57749 0,0 -2e-5,10e-6 -2e-5,10e-6 z m 108.54401,-0.43334 c -2.46956,2.54453 -4.87589,5.12624 -7.21688,7.74302 -3.42176,0.0114 -6.82512,0.10529 -10.20502,0.28173 1.7649,2.98489 3.44013,5.99127 5.02722,9.01454 -1.03668,3.38503 -2.05893,6.77377 -3.06668,10.16613 3.05385,-0.8432 6.1604,-1.61382 9.31417,-2.30991 2.46561,2.07752 4.86031,4.20033 7.18388,6.36268 0.69393,-3.46792 1.37033,-6.94037 2.0291,-10.41722 2.82179,-1.94055 5.71186,-3.82674 8.66658,-5.65564 -2.92377,-1.72046 -5.90097,-3.38157 -8.92967,-4.97874 -0.85892,-3.40333 -1.79273,-6.8065 -2.80272,-10.20659 0,0 2e-5,0 2e-5,0 z"
         id="path4191"
         inkscape:connector-curvature="0"
         inkscape:path-effect="#path-effect4200"
         inkscape:original-d="m 287.69544,397.47023 -7.49393,13.86152 -14.81223,3.55038 10.25685,11.76012 -1.35227,15.87383 13.83313,-6.59397 13.97644,6.25915 -1.70814,-15.83608 9.99244,-12.0028 -14.88985,-3.19547 -7.80242,-13.67668 z m -51.44477,15.17504 -4.99597,9.2397 -9.87481,2.36758 6.83919,7.84007 -0.90346,10.58321 9.22339,-4.39663 9.31697,4.17342 -1.13745,-10.55674 6.66033,-8.00316 -9.92722,-2.13032 -5.20095,-9.11713 z m 104.04039,-0.35381 -4.99594,9.23969 -9.87483,2.36758 6.83726,7.84008 -0.90152,10.58321 9.22143,-4.39662 9.31895,4.17341 -1.13946,-10.55673 6.66228,-8.00318 -9.92723,-2.13031 -5.20096,-9.11712 z" />
    </g>
    <g
       id="g5433"
       style="stroke-width:2.00000018;stroke-miterlimit:4;stroke-dasharray:none;stroke:#374548;stroke-opacity:1" />
    <g
       id="g5436"
       transform="matrix(-0.99999632,-0.00271476,0.00271477,-0.99999632,601.88768,714.20217)"
       style="stroke-width:2.00000017;stroke-miterlimit:4;stroke-dasharray:none;stroke:#374548;stroke-opacity:1" />
    <path
       inkscape:connector-curvature="0"
       id="path4256"
       d="m 120,381.29049 -34.285715,13.92858 35.000005,0.35714 z"
       style="fill:none;fill-rule:evenodd;stroke:none;stroke-width:1px;stroke-linecap:butt;stroke-linejoin:miter;stroke-opacity:1" />
    <g
       id="g5757"
       transform="translate(12.121832,321.22853)">
      <g
         inkscape:path-effect="#path-effect5753"
         id="g5688">
        <path
           style="opacity:0.95999995;fill:#2ca089;fill-opacity:1;stroke:#374548;stroke-width:2.00000024;stroke-miterlimit:4;stroke-dasharray:none;stroke-dashoffset:0;stroke-opacity:1"
           d="m 10.26028,300.77807 c 34.212225,-7.88693 68.724637,-14.18806 103.40797,-18.97328 l 15.6976,113.89834 c -31.367164,4.3163 -62.483608,10.00093 -93.22007,17.12376 7.631982,-23.03184 16.076044,-45.99872 25.303216,-68.86684 C 44.970862,329.19654 27.911067,314.7902 10.26028,300.77807 Z"
           id="rect4243"
           inkscape:path-effect="#path-effect5538"
           inkscape:original-d="m 21.428564,299.50479 99.999996,0 0,114.99999 -99.999996,0 40.000005,-62.14284 z"
           inkscape:connector-curvature="0"
           sodipodi:nodetypes="cccccc" />
        <g
           id="g4863"
           transform="translate(-3.9285719,-146.07143)">
          <g
             id="g4721">
            <path
               inkscape:original-d="m 125.4563,555.37184 c 0,0 -0.81192,4.20169 -0.81192,4.20169 0,0 -1.9e-4,-10e-6 -5.6e-4,-2e-5 -0.19155,-0.006 -49.228511,-1.62125 -49.228511,-1.62125 0,0 1.91e-4,-10e-6 5.72e-4,-3e-5 0.19471,-0.01 50.040419,-2.58039 50.040419,-2.58039"
               style="opacity:0.95999995;fill:#374548;fill-opacity:1;stroke:none;stroke-width:0;stroke-miterlimit:4;stroke-dasharray:none;stroke-dashoffset:0;stroke-opacity:1"
               d="m 132.67779,536.60715 c -9e-5,3e-4 -0.19161,4.26723 -0.19153,4.26693 0,0 -1.8e-4,10e-6 -5.3e-4,5e-5 -0.9995,0.10478 -10.83026,1.09743 -23.32984,2.66325 -11.593246,1.45229 -23.126666,3.1564 -23.126666,3.1564 0,0 1.77e-4,-5e-5 5.3e-4,-1.3e-4 0.97455,-0.23368 10.779088,-2.60634 23.311206,-5.31457 11.6398,-2.5154 23.33683,-4.77193 23.33683,-4.77193 z"
               id="path4723"
               inkscape:connector-curvature="0" />
            <path
               inkscape:original-d="m 125.27773,551.18228 c 0,0 -0.81192,4.20169 -0.81192,4.20169 0,0 -1.9e-4,-10e-6 -5.5e-4,-2e-5 -0.18418,-0.006 -49.228524,-1.62125 -49.228524,-1.62125 0,0 1.84e-4,-10e-6 5.5e-4,-3e-5 0.187221,-0.01 50.040444,-2.58039 50.040444,-2.58039"
               style="opacity:0.95999995;fill:#374548;fill-opacity:1;stroke:none;stroke-width:0;stroke-miterlimit:4;stroke-dasharray:none;stroke-dashoffset:0;stroke-opacity:1"
               d="m 131.93678,532.481 c 0,6e-5 -0.1938,4.26744 -0.1938,4.26737 0,0 -1.8e-4,2e-5 -5.2e-4,5e-5 -0.94346,0.0979 -10.92435,1.11149 -23.41671,2.68021 -11.638828,1.46154 -23.219186,3.17609 -23.219186,3.17609 0,0 1.71e-4,-4e-5 5.11e-4,-1.3e-4 0.896481,-0.21693 10.896786,-2.63235 23.400155,-5.33377 11.68605,-2.52484 23.42955,-4.78982 23.42955,-4.78982 z"
               id="path4725"
               inkscape:connector-curvature="0" />
            <path
               inkscape:original-d="m 125.09916,546.99272 c 0,0 -0.81193,4.20169 -0.81193,4.20169 0,0 -1.7e-4,-10e-6 -5.2e-4,-2e-5 -0.17681,-0.006 -49.228547,-1.62125 -49.228547,-1.62125 0,0 1.76e-4,-10e-6 5.28e-4,-3e-5 0.179732,-0.009 50.040469,-2.58039 50.040469,-2.58039"
               style="opacity:0.95999995;fill:#374548;fill-opacity:1;stroke:none;stroke-width:0;stroke-miterlimit:4;stroke-dasharray:none;stroke-dashoffset:0;stroke-opacity:1"
               d="m 131.19448,528.35506 c -2.4e-4,-4.1e-4 -0.19632,4.26741 -0.19608,4.26782 0,0 -1.6e-4,10e-6 -4.9e-4,5e-5 -0.89002,0.0914 -11.01582,1.12526 -23.50358,2.69718 -11.684426,1.47081 -23.311746,3.19581 -23.311746,3.19581 0,0 1.64e-4,-4e-5 4.92e-4,-1.2e-4 1.030818,-0.24558 10.802206,-2.612 23.489154,-5.35263 11.7323,-2.53441 23.52225,-4.80811 23.52225,-4.80811 z"
               id="path4727"
               inkscape:connector-curvature="0" />
            <path
               inkscape:original-d="m 124.92058,542.80316 c 0,0 -0.81192,4.20169 -0.81192,4.20169 0,0 -1.7e-4,-1e-5 -5e-4,-2e-5 -0.16945,-0.006 -49.22857,-1.62126 -49.22857,-1.62126 0,0 1.69e-4,0 5.06e-4,-2e-5 0.172243,-0.009 50.040484,-2.58039 50.040484,-2.58039"
               style="opacity:0.95999995;fill:#374548;fill-opacity:1;stroke:none;stroke-width:0;stroke-miterlimit:4;stroke-dasharray:none;stroke-dashoffset:0;stroke-opacity:1"
               d="m 130.45089,524.22933 c -10e-6,-2e-5 -0.19835,4.26825 -0.19835,4.26826 0,0 -1.6e-4,1e-5 -4.7e-4,5e-5 -0.83899,0.0851 -11.10482,1.13877 -23.59044,2.71419 -11.730047,1.48008 -23.404348,3.21556 -23.404348,3.21556 0,0 1.6e-4,-3e-5 4.75e-4,-1.1e-4 0.938234,-0.22572 10.934323,-2.64115 23.578093,-5.37189 11.77857,-2.54387 23.61504,-4.82606 23.61504,-4.82606 z"
               id="path4729"
               inkscape:connector-curvature="0" />
            <path
               inkscape:original-d="m 124.74201,538.6136 c 0,0 -0.81192,4.20169 -0.81192,4.20169 0,0 -1.6e-4,-10e-6 -4.8e-4,-2e-5 -0.16208,-0.005 -49.228593,-1.62126 -49.228593,-1.62126 0,0 1.62e-4,0 4.84e-4,-2e-5 0.164755,-0.009 50.040509,-2.58039 50.040509,-2.58039"
               style="opacity:0.95999995;fill:#374548;fill-opacity:1;stroke:none;stroke-width:0;stroke-miterlimit:4;stroke-dasharray:none;stroke-dashoffset:0;stroke-opacity:1"
               d="m 129.70601,520.10381 c -1.3e-4,3.5e-4 -0.20074,4.26907 -0.20062,4.26871 0,0 -1.5e-4,10e-6 -4.6e-4,4e-5 -1.02056,0.10871 -10.96102,1.12339 -23.67723,2.73159 -11.775687,1.48926 -23.497038,3.23498 -23.497038,3.23498 0,0 1.54e-4,-2e-5 4.56e-4,-10e-5 0.855629,-0.20801 11.056416,-2.66815 23.667022,-5.39117 11.82487,-2.55336 23.70787,-4.84405 23.70787,-4.84405 z"
               id="path4731"
               inkscape:connector-curvature="0" />
            <path
               inkscape:original-d="m 124.56344,534.42404 c 0,0 -0.81193,4.20169 -0.81193,4.20169 0,0 -1.5e-4,-10e-6 -4.5e-4,-2e-5 -0.15472,-0.005 -49.228616,-1.62126 -49.228616,-1.62126 0,0 1.54e-4,0 4.62e-4,-2e-5 0.157266,-0.008 50.040534,-2.58039 50.040534,-2.58039"
               style="opacity:0.95999995;fill:#374548;fill-opacity:1;stroke:none;stroke-width:0;stroke-miterlimit:4;stroke-dasharray:none;stroke-dashoffset:0;stroke-opacity:1"
               d="m 128.95984,515.97849 c 0,4e-5 -0.2029,4.2692 -0.2029,4.26917 0,0 -1.4e-4,10e-6 -4.3e-4,4e-5 -0.9526,0.10029 -11.06687,1.13904 -23.76409,2.74864 -11.821325,1.49857 -23.589698,3.25481 -23.589698,3.25481 0,0 1.47e-4,-3e-5 4.37e-4,-1e-4 0.994023,-0.23753 10.957636,-2.64694 23.756011,-5.41011 11.87116,-2.56298 23.80067,-4.86245 23.80067,-4.86245 z"
               id="path4733"
               inkscape:connector-curvature="0" />
            <path
               inkscape:original-d="m 124.38487,530.23448 c 0,0 -0.81193,4.20169 -0.81193,4.20169 0,0 -1.4e-4,-10e-6 -4.3e-4,-2e-5 -0.14735,-0.005 -49.228639,-1.62126 -49.228639,-1.62126 0,0 1.47e-4,-10e-6 4.4e-4,-2e-5 0.149777,-0.008 50.040559,-2.58039 50.040559,-2.58039"
               style="opacity:0.95999995;fill:#374548;fill-opacity:1;stroke:none;stroke-width:0;stroke-miterlimit:4;stroke-dasharray:none;stroke-dashoffset:0;stroke-opacity:1"
               d="m 128.21238,511.8534 c -4e-5,2.2e-4 -0.20521,4.26984 -0.20517,4.26961 0,0 -1.4e-4,10e-6 -4.2e-4,4e-5 -0.88818,0.0923 -11.16911,1.15428 -23.85092,2.76572 -11.86699,1.5079 -23.682408,3.27466 -23.682408,3.27466 0,0 1.39e-4,-4e-5 4.17e-4,-10e-5 0.894926,-0.21627 11.096126,-2.67749 23.844941,-5.42943 11.91748,-2.57249 23.89356,-4.8805 23.89356,-4.8805 z"
               id="path4735"
               inkscape:connector-curvature="0" />
            <path
               inkscape:original-d="m 124.20629,526.04492 c 0,0 -0.81192,4.20169 -0.81192,4.20169 0,0 -1.4e-4,-1e-5 -4.1e-4,-2e-5 -0.13998,-0.005 -49.228662,-1.62126 -49.228662,-1.62126 0,0 1.39e-4,-10e-6 4.18e-4,-2e-5 0.142288,-0.007 50.040574,-2.58039 50.040574,-2.58039"
               style="opacity:0.95999995;fill:#374548;fill-opacity:1;stroke:none;stroke-width:0;stroke-miterlimit:4;stroke-dasharray:none;stroke-dashoffset:0;stroke-opacity:1"
               d="m 127.46362,507.72851 c -4e-5,-1.9e-4 -0.20748,4.26987 -0.20743,4.27006 0,0 -1.4e-4,1e-5 -4e-4,3e-5 -0.82702,0.0847 -11.26806,1.16917 -23.93777,2.78283 -11.912654,1.51725 -23.775139,3.29455 -23.775139,3.29455 0,0 1.32e-4,-3e-5 3.98e-4,-9e-5 1.072119,-0.25415 10.95845,-2.64793 23.933911,-5.44842 11.96379,-2.58215 23.98643,-4.89896 23.98643,-4.89896 z"
               id="path4737"
               inkscape:connector-curvature="0" />
            <path
               inkscape:original-d="m 124.02772,521.85536 c 0,0 -0.81193,4.20168 -0.81193,4.20168 0,0 -1.3e-4,0 -3.9e-4,-10e-6 -0.13261,-0.004 -49.228675,-1.62126 -49.228675,-1.62126 0,0 1.32e-4,-1e-5 3.96e-4,-2e-5 0.134799,-0.007 50.040599,-2.58039 50.040599,-2.58039"
               style="opacity:0.95999995;fill:#374548;fill-opacity:1;stroke:none;stroke-width:0;stroke-miterlimit:4;stroke-dasharray:none;stroke-dashoffset:0;stroke-opacity:1"
               d="m 126.71358,503.60383 c 0,-2e-5 -0.20972,4.27048 -0.20972,4.2705 0,0 -1.3e-4,2e-5 -3.8e-4,5e-5 -1.05316,0.11416 -11.07951,1.14789 -24.02453,2.80032 -11.958354,1.52648 -23.867971,3.3141 -23.867971,3.3141 0,0 1.26e-4,-3e-5 3.79e-4,-9e-5 0.948984,-0.2277 11.120882,-2.68367 24.022822,-5.4678 12.01015,-2.59169 24.0794,-4.91708 24.0794,-4.91708 z"
               id="path4739"
               inkscape:connector-curvature="0" />
            <path
               inkscape:original-d="m 123.84915,517.6658 c 0,0 -0.81193,4.20168 -0.81193,4.20168 0,0 -1.2e-4,0 -3.7e-4,-10e-6 -0.12524,-0.004 -49.228698,-1.62126 -49.228698,-1.62126 0,0 1.25e-4,-10e-6 3.74e-4,-2e-5 0.12731,-0.007 50.040624,-2.58039 50.040624,-2.58039"
               style="opacity:0.95999995;fill:#374548;fill-opacity:1;stroke:none;stroke-width:0;stroke-miterlimit:4;stroke-dasharray:none;stroke-dashoffset:0;stroke-opacity:1"
               d="m 125.96225,499.47937 c -5.4e-4,-4.8e-4 -0.21254,4.27048 -0.212,4.27095 0,0 -1.1e-4,2e-5 -3.6e-4,4e-5 -0.96662,0.1033 -11.20373,1.16601 -24.11135,2.81748 -12.004058,1.53586 -23.960783,3.33405 -23.960783,3.33405 0,0 1.19e-4,-3e-5 3.58e-4,-8e-5 0.842383,-0.20485 11.266734,-2.71584 24.111725,-5.48721 12.05652,-2.60125 24.17241,-4.93523 24.17241,-4.93523 z"
               id="path4741"
               inkscape:connector-curvature="0" />
            <path
               inkscape:original-d="m 123.67057,513.47623 c 0,0 -0.81192,4.20169 -0.81192,4.20169 0,0 -1.2e-4,0 -3.5e-4,-10e-6 -0.11788,-0.004 -49.228721,-1.62126 -49.228721,-1.62126 0,0 1.17e-4,-10e-6 3.52e-4,-2e-5 0.119821,-0.006 50.040639,-2.5804 50.040639,-2.5804"
               style="opacity:0.95999995;fill:#374548;fill-opacity:1;stroke:none;stroke-width:0;stroke-miterlimit:4;stroke-dasharray:none;stroke-dashoffset:0;stroke-opacity:1"
               d="m 125.20962,495.3551 c -1e-5,-7e-5 -0.21427,4.27135 -0.21426,4.27142 0,0 -1.2e-4,2e-5 -3.5e-4,4e-5 -0.88577,0.0931 -11.32223,1.18346 -24.19818,2.83465 -12.049764,1.54525 -24.053616,3.35404 -24.053616,3.35404 0,0 1.11e-4,-3e-5 3.38e-4,-8e-5 1.027731,-0.24446 11.120762,-2.68453 24.200688,-5.50627 12.10287,-2.61096 24.26538,-4.9538 24.26538,-4.9538 z"
               id="path4743"
               inkscape:connector-curvature="0" />
            <path
               inkscape:original-d="m 123.492,509.28667 c 0,0 -0.81193,4.20169 -0.81193,4.20169 0,0 -1e-4,0 -3.2e-4,-10e-6 -0.11051,-0.004 -49.228744,-1.62126 -49.228744,-1.62126 0,0 1.1e-4,-1e-5 3.3e-4,-2e-5 0.112332,-0.006 50.040664,-2.5804 50.040664,-2.5804"
               style="opacity:0.95999995;fill:#374548;fill-opacity:1;stroke:none;stroke-width:0;stroke-miterlimit:4;stroke-dasharray:none;stroke-dashoffset:0;stroke-opacity:1"
               d="m 124.45571,491.23106 c 0,0 -0.21655,4.27187 -0.21655,4.27187 0,0 -1e-4,2e-5 -3.2e-4,4e-5 -0.80972,0.0835 -11.43588,1.20034 -24.284994,2.85186 -12.095494,1.55465 -24.146497,3.37406 -24.146497,3.37406 0,0 1.05e-4,-3e-5 3.18e-4,-8e-5 0.892588,-0.21545 11.295062,-2.72286 24.289583,-5.52573 12.14927,-2.62055 24.35846,-4.97202 24.35846,-4.97202 z"
               id="path4745"
               inkscape:connector-curvature="0" />
            <path
               inkscape:original-d="m 123.31343,505.09711 c 0,0 -0.81193,4.20169 -0.81193,4.20169 0,0 -10e-5,0 -3e-4,-1e-5 -0.10314,-0.003 -49.228768,-1.62126 -49.228768,-1.62126 0,0 1.03e-4,-10e-6 3.08e-4,-2e-5 0.104844,-0.005 50.04069,-2.5804 50.04069,-2.5804"
               style="opacity:0.95999995;fill:#374548;fill-opacity:1;stroke:none;stroke-width:0;stroke-miterlimit:4;stroke-dasharray:none;stroke-dashoffset:0;stroke-opacity:1"
               d="m 123.7005,487.10724 c -1e-5,-1.2e-4 -0.21884,4.27221 -0.21883,4.27232 0,0 -9e-5,10e-6 -2.9e-4,3e-5 -1.11029,0.12284 -11.17273,1.16925 -24.371748,2.86946 -12.141249,1.56395 -24.23947,3.39374 -24.23947,3.39374 0,0 9.9e-5,-3e-5 2.98e-4,-8e-5 1.152425,-0.27112 11.07451,-2.6755 24.378531,-5.54483 12.195659,-2.63029 24.451509,-4.99064 24.451509,-4.99064 z"
               id="path4747"
               inkscape:connector-curvature="0" />
            <path
               inkscape:original-d="m 123.13485,500.90755 c 0,0 -0.81192,4.20169 -0.81192,4.20169 0,0 -1e-4,0 -2.8e-4,-10e-6 -0.0958,-0.003 -49.228791,-1.62126 -49.228791,-1.62126 0,0 9.6e-5,-1e-5 2.86e-4,-2e-5 0.09736,-0.005 50.040705,-2.5804 50.040705,-2.5804"
               style="opacity:0.95999995;fill:#374548;fill-opacity:1;stroke:none;stroke-width:0;stroke-miterlimit:4;stroke-dasharray:none;stroke-dashoffset:0;stroke-opacity:1"
               d="m 122.944,482.98362 c -9e-5,-2.6e-4 -0.22119,4.27252 -0.2211,4.27278 0,0 -10e-5,1e-5 -2.8e-4,3e-5 -0.99206,0.10779 -11.32848,1.19156 -24.458558,2.88671 -12.187001,1.57339 -24.332407,3.41382 -24.332407,3.41382 0,0 9.2e-5,-2e-5 2.77e-4,-7e-5 0.969636,-0.23184 11.296363,-2.7241 24.467413,-5.56434 12.242085,-2.63991 24.544655,-5.00893 24.544655,-5.00893 z"
               id="path4749"
               inkscape:connector-curvature="0" />
            <path
               inkscape:original-d="m 122.95628,496.71799 c 0,0 -0.81192,4.20169 -0.81192,4.20169 0,0 -9e-5,0 -2.6e-4,-1e-5 -0.0884,-0.003 -49.228814,-1.62126 -49.228814,-1.62126 0,0 8.8e-5,-10e-6 2.64e-4,-2e-5 0.08987,-0.005 50.04073,-2.5804 50.04073,-2.5804"
               style="opacity:0.95999995;fill:#374548;fill-opacity:1;stroke:none;stroke-width:0;stroke-miterlimit:4;stroke-dasharray:none;stroke-dashoffset:0;stroke-opacity:1"
               d="m 122.18621,478.86022 c -2.4e-4,-4.1e-4 -0.22362,4.27283 -0.22337,4.27323 0,0 -9e-5,2e-5 -2.6e-4,3e-5 -0.88274,0.0938 -11.47524,1.21279 -24.545353,2.90398 -12.232773,1.58285 -24.425401,3.43395 -24.425401,3.43395 0,0 8.5e-5,-3e-5 2.57e-4,-7e-5 0.819877,-0.19969 11.485132,-2.76556 24.556292,-5.58387 12.288525,-2.64956 24.637835,-5.02725 24.637835,-5.02725 z"
               id="path4751"
               inkscape:connector-curvature="0" />
            <path
               inkscape:original-d="m 122.77771,492.52843 c 0,0 -0.81193,4.20169 -0.81193,4.20169 0,0 -8e-5,0 -2.4e-4,-10e-6 -0.081,-0.003 -49.228827,-1.62126 -49.228827,-1.62126 0,0 8.1e-5,-1e-5 2.42e-4,-2e-5 0.08238,-0.004 50.040755,-2.5804 50.040755,-2.5804"
               style="opacity:0.95999995;fill:#374548;fill-opacity:1;stroke:none;stroke-width:0;stroke-miterlimit:4;stroke-dasharray:none;stroke-dashoffset:0;stroke-opacity:1"
               d="m 121.42713,474.73703 c -1e-5,-9e-5 -0.22568,4.2736 -0.22566,4.27369 0,0 -8e-5,1e-5 -2.4e-4,3e-5 -0.7819,0.0809 -11.61346,1.23298 -24.63213,2.92128 -12.278557,1.59231 -24.518425,3.4541 -24.518425,3.4541 0,0 7.8e-5,-3e-5 2.36e-4,-7e-5 1.101169,-0.25997 11.242983,-2.71361 24.645226,-5.60305 12.334953,-2.65934 24.730993,-5.04598 24.730993,-5.04598 z"
               id="path4753"
               inkscape:connector-curvature="0" />
            <path
               inkscape:original-d="m 122.59913,488.33887 c 0,0 -0.81192,4.20169 -0.81192,4.20169 0,0 -7e-5,0 -2.2e-4,-1e-5 -0.0737,-0.002 -49.22885,-1.62127 -49.22885,-1.62127 0,0 7.4e-5,0 2.2e-4,-1e-5 0.07489,-0.004 50.04077,-2.5804 50.04077,-2.5804"
               style="opacity:0.95999995;fill:#374548;fill-opacity:1;stroke:none;stroke-width:0;stroke-miterlimit:4;stroke-dasharray:none;stroke-dashoffset:0;stroke-opacity:1"
               d="m 120.66675,470.61406 c -2e-5,1.6e-4 -0.22795,4.27431 -0.22793,4.27415 0,0 -7e-5,10e-6 -2.2e-4,2e-5 -1.235,0.14042 -11.19766,1.18176 -24.718887,2.93897 -12.32436,1.60167 -24.611513,3.4739 -24.611513,3.4739 0,0 7.4e-5,-1e-5 2.17e-4,-5e-5 0.889531,-0.21448 11.493536,-2.76841 24.73409,-5.62263 12.381423,-2.66902 24.824243,-5.06436 24.824243,-5.06436 z"
               id="path4755"
               inkscape:connector-curvature="0" />
            <path
               inkscape:original-d="m 122.42056,484.14931 c 0,0 -0.81192,4.20169 -0.81192,4.20169 0,0 -7e-5,0 -2e-4,-10e-6 -0.0663,-0.002 -49.228873,-1.62127 -49.228873,-1.62127 0,0 6.6e-5,0 1.98e-4,-10e-6 0.0674,-0.003 50.040795,-2.5804 50.040795,-2.5804"
               style="opacity:0.95999995;fill:#374548;fill-opacity:1;stroke:none;stroke-width:0;stroke-miterlimit:4;stroke-dasharray:none;stroke-dashoffset:0;stroke-opacity:1"
               d="m 119.90509,466.4913 c -3.6e-4,5e-4 -0.23057,4.27511 -0.23021,4.2746 0,0 -8e-5,1e-5 -2.1e-4,2e-5 -1.04542,0.11599 -11.42452,1.21348 -24.805653,2.95632 -12.370175,1.61117 -24.704612,3.49413 -24.704612,3.49413 0,0 6.6e-5,-2e-5 1.96e-4,-5e-5 1.374497,-0.31866 11.047618,-2.67257 24.823013,-5.64187 12.427886,-2.67883 24.917476,-5.08315 24.917476,-5.08315 z"
               id="path4757"
               inkscape:connector-curvature="0" />
            <path
               inkscape:original-d="m 122.24199,479.95975 c 0,0 -0.81193,4.20169 -0.81193,4.20169 0,0 -5e-5,0 -1.7e-4,-1e-5 -0.0589,-0.002 -49.228896,-1.62127 -49.228896,-1.62127 0,0 5.9e-5,0 1.76e-4,-1e-5 0.05991,-0.003 50.04082,-2.5804 50.04082,-2.5804"
               style="opacity:0.95999995;fill:#374548;fill-opacity:1;stroke:none;stroke-width:0;stroke-miterlimit:4;stroke-dasharray:none;stroke-dashoffset:0;stroke-opacity:1"
               d="m 119.14213,462.36875 c -10e-4,0 -0.2335,4.27507 -0.2325,4.27507 0,0 -5e-5,10e-6 -1.7e-4,10e-6 -0.87866,0.0944 -11.62854,1.24234 -24.892426,2.9737 -12.416003,1.62068 -24.797746,3.51437 -24.797746,3.51437 0,0 5.9e-5,-10e-6 1.75e-4,-4e-5 1.0226,-0.24295 11.438336,-2.75761 24.911871,-5.6615 12.474386,-2.68854 25.010796,-5.10161 25.010796,-5.10161 z"
               id="path4759"
               inkscape:connector-curvature="0" />
            <path
               inkscape:original-d="m 122.06342,475.77019 c 0,0 -0.81193,4.20169 -0.81193,4.20169 0,0 -5e-5,-10e-6 -1.5e-4,-10e-6 -0.0516,-0.002 -49.228919,-1.62127 -49.228919,-1.62127 0,0 5.1e-5,0 1.54e-4,-10e-6 0.05242,-0.003 50.040845,-2.5804 50.040845,-2.5804"
               style="opacity:0.95999995;fill:#374548;fill-opacity:1;stroke:none;stroke-width:0;stroke-miterlimit:4;stroke-dasharray:none;stroke-dashoffset:0;stroke-opacity:1"
               d="m 118.37788,458.24642 c -6.3e-4,5.1e-4 -0.23541,4.27603 -0.23478,4.27553 0,0 -5e-5,-1e-5 -1.5e-4,10e-6 -0.73223,0.0754 -11.81227,1.26864 -24.979225,2.9911 -12.461833,1.63021 -24.890876,3.53465 -24.890876,3.53465 0,0 5.1e-5,-10e-6 1.52e-4,-4e-5 0.771828,-0.18905 11.727885,-2.82083 25.000724,-5.68115 12.520895,-2.69827 25.104155,-5.1201 25.104155,-5.1201 z"
               id="path4761"
               inkscape:connector-curvature="0" />
            <path
               inkscape:original-d="m 121.88484,471.58063 c 0,0 -0.81192,4.20169 -0.81192,4.20169 0,0 -5e-5,-1e-5 -1.3e-4,-1e-5 -0.0442,-10e-4 -49.228942,-1.62127 -49.228942,-1.62127 0,0 4.4e-5,0 1.32e-4,-1e-5 0.04493,-0.002 50.04086,-2.5804 50.04086,-2.5804"
               style="opacity:0.95999995;fill:#374548;fill-opacity:1;stroke:none;stroke-width:0;stroke-miterlimit:4;stroke-dasharray:none;stroke-dashoffset:0;stroke-opacity:1"
               d="m 117.61233,454.12431 c 0,0 -0.23705,4.27598 -0.23705,4.27598 0,0 -5e-5,0 -1.3e-4,1e-5 -1.68406,0.2008 -10.89745,1.15154 -25.065922,3.00889 -12.507704,1.63964 -24.984142,3.5546 -24.984142,3.5546 0,0 4.5e-5,-1e-5 1.32e-4,-3e-5 1.37015,-0.31763 11.168464,-2.70061 25.089625,-5.70046 12.567397,-2.70814 25.197487,-5.13899 25.197487,-5.13899 z"
               id="path4763"
               inkscape:connector-curvature="0" />
            <path
               inkscape:original-d="m 121.70627,467.39107 c 0,0 -0.81193,4.20168 -0.81193,4.20168 0,0 -3e-5,0 -1e-4,0 -0.0368,-0.001 -49.228965,-1.62127 -49.228965,-1.62127 0,0 3.7e-5,0 1.1e-4,0 0.03744,-0.002 50.040885,-2.58041 50.040885,-2.58041"
               style="opacity:0.95999995;fill:#374548;fill-opacity:1;stroke:none;stroke-width:0;stroke-miterlimit:4;stroke-dasharray:none;stroke-dashoffset:0;stroke-opacity:1"
               d="m 116.8455,450.00241 c 0,0 -0.23935,4.27643 -0.23935,4.27644 0,0 -3e-5,0 -1e-4,1e-5 -1.22528,0.14091 -11.39333,1.21873 -25.152668,3.02633 -12.553575,1.6492 -25.077381,3.57496 -25.077381,3.57496 0,0 3.8e-5,-1e-5 1.12e-4,-3e-5 0.8854,-0.2133 11.691893,-2.81424 25.178466,-5.72016 12.613941,-2.7179 25.290921,-5.15755 25.290921,-5.15755 z"
               id="path4765"
               inkscape:connector-curvature="0" />
            <path
               inkscape:original-d="m 121.5277,463.20151 c 0,0 -0.81193,4.20168 -0.81193,4.20168 0,0 -3e-5,0 -9e-5,0 -0.0295,-9.7e-4 -49.228978,-1.62127 -49.228978,-1.62127 0,0 2.9e-5,0 8.8e-5,0 0.02996,-0.002 50.04091,-2.58041 50.04091,-2.58041"
               style="opacity:0.95999995;fill:#374548;fill-opacity:1;stroke:none;stroke-width:0;stroke-miterlimit:4;stroke-dasharray:none;stroke-dashoffset:0;stroke-opacity:1"
               d="m 116.07737,445.88072 c 0,0 -0.24163,4.2769 -0.24163,4.2769 0,0 -3e-5,10e-6 -9e-5,2e-5 -0.91601,0.10045 -11.73975,1.26653 -25.239444,3.04382 -12.599444,1.65877 -25.170613,3.59531 -25.170613,3.59531 0,0 3e-5,0 9e-5,-10e-6 0.580773,-0.14782 12.035162,-2.88907 25.267306,-5.7399 12.660501,-2.72767 25.384381,-5.17614 25.384381,-5.17614 z"
               id="path4767"
               inkscape:connector-curvature="0" />
            <path
               inkscape:original-d="m 121.34912,459.01194 c 0,0 -0.81192,4.20169 -0.81192,4.20169 0,0 -2e-5,0 -7e-5,0 -0.0221,-7.3e-4 -49.229001,-1.62127 -49.229001,-1.62127 0,0 2.2e-5,0 6.6e-5,0 0.02247,-10e-4 50.040925,-2.58042 50.040925,-2.58042"
               style="opacity:0.95999995;fill:#374548;fill-opacity:1;stroke:none;stroke-width:0;stroke-miterlimit:4;stroke-dasharray:none;stroke-dashoffset:0;stroke-opacity:1"
               d="m 115.30794,441.75924 c -0.001,7e-5 -0.2449,4.27744 -0.2439,4.27738 0,0 -2e-5,0 -7e-5,10e-6 -0.90895,0.0998 -11.7838,1.27472 -25.326171,3.0614 -12.645346,1.66834 -25.263937,3.61565 -25.263937,3.61565 0,0 2.3e-5,-1e-5 6.7e-5,-1e-5 1.366705,-0.31679 11.287992,-2.72846 25.356192,-5.75929 12.707039,-2.73758 25.477819,-5.19514 25.477819,-5.19514 z"
               id="path4769"
               inkscape:connector-curvature="0" />
            <path
               inkscape:original-d="m 121.17055,454.82238 c 0,0 -0.81193,4.20169 -0.81193,4.20169 0,0 -1e-5,0 -4e-5,0 -0.0147,-4.8e-4 -49.229024,-1.62127 -49.229024,-1.62127 0,0 1.4e-5,0 4.4e-5,0 0.01498,-7.8e-4 50.04095,-2.58042 50.04095,-2.58042"
               style="opacity:0.95999995;fill:#374548;fill-opacity:1;stroke:none;stroke-width:0;stroke-miterlimit:4;stroke-dasharray:none;stroke-dashoffset:0;stroke-opacity:1"
               d="m 114.53723,437.63799 c 0,10e-6 -0.2462,4.27784 -0.2462,4.27784 0,0 -1e-5,0 -4e-5,10e-6 -0.9231,0.10196 -11.80657,1.28012 -25.412886,3.07901 -12.691262,1.67792 -25.357296,3.63601 -25.357296,3.63601 0,0 1.4e-5,-10e-6 4.5e-5,-10e-6 0.93253,-0.22328 11.760742,-2.83108 25.44503,-5.77898 12.753617,-2.74742 25.571347,-5.21388 25.571347,-5.21388 z"
               id="path4771"
               inkscape:connector-curvature="0" />
            <path
               inkscape:original-d="m 120.99198,450.63282 c 0,0 -0.81193,4.20169 -0.81193,4.20169 0,0 -10e-6,0 -2e-5,0 -0.007,-2.4e-4 -49.229048,-1.62127 -49.229048,-1.62127 0,0 8e-6,0 2.2e-5,0 0.0075,-3.9e-4 50.040976,-2.58042 50.040976,-2.58042"
               style="opacity:0.95999995;fill:#374548;fill-opacity:1;stroke:none;stroke-width:0;stroke-miterlimit:4;stroke-dasharray:none;stroke-dashoffset:0;stroke-opacity:1"
               d="m 113.76522,433.51696 c 0,0 -0.24848,4.2783 -0.24848,4.2783 0,0 -1e-5,0 -2e-5,0 -0.85949,0.0938 -11.90677,1.29578 -25.499485,3.09663 -12.73723,1.68752 -25.450806,3.65642 -25.450806,3.65642 0,0 8e-6,0 2.2e-5,-1e-5 0.934299,-0.22361 11.797545,-2.8397 25.533878,-5.79864 12.800211,-2.75728 25.664891,-5.2327 25.664891,-5.2327 z"
               id="path4773"
               inkscape:connector-curvature="0" />
            <path
               inkscape:original-d="m 120.8134,446.44326 c 0,0 -0.81192,4.20169 -0.81192,4.20169 0,0 0,0 0,0 0,0 -49.229071,-1.62127 -49.229071,-1.62127 0,0 0,0 0,0 0,0 50.040991,-2.58042 50.040991,-2.58042"
               style="opacity:0.95999995;fill:#374548;fill-opacity:1;stroke:none;stroke-width:0;stroke-miterlimit:4;stroke-dasharray:none;stroke-dashoffset:0;stroke-opacity:1"
               d="m 112.99191,429.39614 c 0,0 -0.25075,4.27877 -0.25075,4.27877 0,0 -12.800907,1.41689 -25.586352,3.11431 -12.783122,1.69712 -25.544081,3.67682 -25.544081,3.67682 0,0 12.774936,-3.05095 25.622707,-5.81833 12.846816,-2.76717 25.758476,-5.25157 25.758476,-5.25157 z"
               id="path4775"
               inkscape:connector-curvature="0" />
          </g>
        </g>
        <path
           inkscape:original-d="m 86.071428,395.21907 34.642862,18.57142 0,-17.85714 z"
           inkscape:connector-curvature="0"
           id="path4254"
           d="m 92.966575,381.78949 c 12.031365,4.23459 23.908025,8.6714 35.629235,13.29896 l -2.44855,-17.68452 c -11.08348,1.29263 -22.14544,2.7534 -33.180685,4.38556 z"
           style="fill:#374548;fill-opacity:1;fill-rule:evenodd;stroke:#000000;stroke-width:1px;stroke-linecap:butt;stroke-linejoin:miter;stroke-opacity:1" />
        <path
           sodipodi:nodetypes="cccccc"
           inkscape:connector-curvature="0"
           inkscape:original-d="m 581.27228,414.64031 -99.99963,-0.27148 0.3122,-114.99956 99.99963,0.27147 -40.16856,62.03402 z"
           inkscape:path-effect="#path-effect4250"
           id="path5438"
           d="m 569.69337,413.55323 c -32.15915,-5.83812 -64.31784,-11.03042 -96.44345,-15.35084 5.09096,-38.00321 10.18831,-76.00563 15.29203,-114.00727 34.16741,4.5735 68.11004,10.05748 101.79527,16.22592 -17.19512,17.90991 -34.10053,36.00109 -50.64668,54.27789 10.31699,19.55995 20.2998,39.18569 30.00283,58.8543 z"
           style="opacity:0.95999995;fill:#2ca089;fill-opacity:1;stroke:#374548;stroke-width:2.00000024;stroke-miterlimit:4;stroke-dasharray:none;stroke-dashoffset:0;stroke-opacity:1" />
        <g
           transform="matrix(-0.99984441,-0.01763981,0.01763981,-0.99984441,595.33069,862.60796)"
           id="g5442">
          <g
             id="g5444">
            <path
               inkscape:original-d="m 125.4563,555.37184 c 0,0 -0.81192,4.20169 -0.81192,4.20169 0,0 -1.9e-4,-10e-6 -5.6e-4,-2e-5 -0.19155,-0.006 -49.228511,-1.62125 -49.228511,-1.62125 0,0 1.91e-4,-10e-6 5.72e-4,-3e-5 0.19471,-0.01 50.040419,-2.58039 50.040419,-2.58039"
               inkscape:connector-curvature="0"
               id="path5446"
               d="m 119.56392,570.95303 c 0,0 -1.37798,4.05911 -1.37798,4.05911 0,0 -1.9e-4,-3e-5 -5.7e-4,-9e-5 -1.00969,-0.16258 -11.74829,-1.9006 -25.137874,-4.25846 -12.483632,-2.19832 -24.886108,-4.54167 -24.886108,-4.54167 0,0 1.96e-4,2e-5 5.87e-4,6e-5 0.939336,0.0987 12.080624,1.27871 25.748698,2.54067 12.825767,1.18418 25.653247,2.20038 25.653247,2.20038 z"
               style="opacity:0.95999995;fill:#374548;fill-opacity:1;stroke:none;stroke-width:0;stroke-miterlimit:4;stroke-dasharray:none;stroke-dashoffset:0;stroke-opacity:1" />
            <path
               inkscape:original-d="m 125.27773,551.18228 c 0,0 -0.81192,4.20169 -0.81192,4.20169 0,0 -1.9e-4,-10e-6 -5.5e-4,-2e-5 -0.18418,-0.006 -49.228524,-1.62125 -49.228524,-1.62125 0,0 1.84e-4,-10e-6 5.5e-4,-3e-5 0.187221,-0.01 50.040444,-2.58039 50.040444,-2.58039"
               inkscape:connector-curvature="0"
               id="path5448"
               d="m 119.92573,566.77426 c 0,0 -1.37622,4.05923 -1.37622,4.05923 0,0 -1.9e-4,-3e-5 -5.6e-4,-9e-5 -1.08541,-0.17633 -11.63673,-1.88371 -25.081082,-4.25345 -12.458454,-2.19596 -24.838648,-4.53682 -24.838648,-4.53682 0,0 1.89e-4,2e-5 5.63e-4,5e-5 1.090422,0.11239 11.89692,1.26099 25.694435,2.53491 12.800382,1.18186 25.601512,2.19617 25.601512,2.19617 z"
               style="opacity:0.95999995;fill:#374548;fill-opacity:1;stroke:none;stroke-width:0;stroke-miterlimit:4;stroke-dasharray:none;stroke-dashoffset:0;stroke-opacity:1" />
            <path
               inkscape:original-d="m 125.09916,546.99272 c 0,0 -0.81193,4.20169 -0.81193,4.20169 0,0 -1.7e-4,-10e-6 -5.2e-4,-2e-5 -0.17681,-0.006 -49.228547,-1.62125 -49.228547,-1.62125 0,0 1.76e-4,-10e-6 5.28e-4,-3e-5 0.179732,-0.009 50.040469,-2.58039 50.040469,-2.58039"
               inkscape:connector-curvature="0"
               id="path5450"
               d="m 120.288,562.59552 c 0,0 -1.37446,4.05936 -1.37446,4.05936 0,0 -1.7e-4,-3e-5 -5.2e-4,-9e-5 -1.1869,-0.19464 -11.49946,-1.86224 -25.024345,-4.24842 -12.433288,-2.1936 -24.79121,-4.53198 -24.79121,-4.53198 0,0 1.8e-4,2e-5 5.4e-4,5e-5 0.850827,0.0905 12.103788,1.27982 25.64016,2.52952 12.775025,1.17941 25.549835,2.19156 25.549835,2.19156 z"
               style="opacity:0.95999995;fill:#374548;fill-opacity:1;stroke:none;stroke-width:0;stroke-miterlimit:4;stroke-dasharray:none;stroke-dashoffset:0;stroke-opacity:1" />
            <path
               inkscape:original-d="m 124.92058,542.80316 c 0,0 -0.81192,4.20169 -0.81192,4.20169 0,0 -1.7e-4,-1e-5 -5e-4,-2e-5 -0.16945,-0.006 -49.22857,-1.62126 -49.22857,-1.62126 0,0 1.69e-4,0 5.06e-4,-2e-5 0.172243,-0.009 50.040484,-2.58039 50.040484,-2.58039"
               inkscape:connector-curvature="0"
               id="path5452"
               d="m 120.65074,558.41682 c 0,0 -1.37269,4.0595 -1.37268,4.0595 0,0 -1.8e-4,-3e-5 -5.1e-4,-9e-5 -1.32846,-0.22007 -11.32216,-1.83367 -24.967642,-4.24341 -12.408131,-2.19123 -24.743784,-4.52713 -24.743784,-4.52713 0,0 1.71e-4,3e-5 5.15e-4,6e-5 0.981789,0.10227 11.940294,1.26395 25.585974,2.52375 12.749667,1.17708 25.498127,2.18732 25.498127,2.18732 z"
               style="opacity:0.95999995;fill:#374548;fill-opacity:1;stroke:none;stroke-width:0;stroke-miterlimit:4;stroke-dasharray:none;stroke-dashoffset:0;stroke-opacity:1" />
            <path
               inkscape:original-d="m 124.74201,538.6136 c 0,0 -0.81192,4.20169 -0.81192,4.20169 0,0 -1.6e-4,-10e-6 -4.8e-4,-2e-5 -0.16208,-0.005 -49.228593,-1.62126 -49.228593,-1.62126 0,0 1.62e-4,0 4.84e-4,-2e-5 0.164755,-0.009 50.040509,-2.58039 50.040509,-2.58039"
               inkscape:connector-curvature="0"
               id="path5454"
               d="m 121.01396,554.23817 c 0,0 -1.37092,4.05963 -1.37092,4.05963 0,0 -1.6e-4,-4e-5 -4.9e-4,-9e-5 -0.95608,-0.15421 -11.65898,-1.8954 -24.91103,-4.23801 -12.38297,-2.18898 -24.696326,-4.52264 -24.696326,-4.52264 0,0 1.63e-4,3e-5 4.91e-4,6e-5 1.196378,0.12178 11.693223,1.24035 25.531836,2.51797 12.724319,1.17474 25.446439,2.18308 25.446439,2.18308 z"
               style="opacity:0.95999995;fill:#374548;fill-opacity:1;stroke:none;stroke-width:0;stroke-miterlimit:4;stroke-dasharray:none;stroke-dashoffset:0;stroke-opacity:1" />
            <path
               inkscape:original-d="m 124.56344,534.42404 c 0,0 -0.81193,4.20169 -0.81193,4.20169 0,0 -1.5e-4,-10e-6 -4.5e-4,-2e-5 -0.15472,-0.005 -49.228616,-1.62126 -49.228616,-1.62126 0,0 1.54e-4,0 4.62e-4,-2e-5 0.157266,-0.008 50.040534,-2.58039 50.040534,-2.58039"
               inkscape:connector-curvature="0"
               id="path5456"
               d="m 121.37765,550.05956 c 0,0 -1.36917,4.05975 -1.36917,4.05975 0,0 -1.5e-4,-3e-5 -4.6e-4,-8e-5 -1.04152,-0.16971 -11.53789,-1.87675 -24.854408,-4.23298 -12.357834,-2.18661 -24.648936,-4.51777 -24.648936,-4.51777 0,0 1.55e-4,2e-5 4.68e-4,5e-5 0.876375,0.0924 11.980634,1.26661 25.477684,2.51257 12.698992,1.17229 25.394822,2.17846 25.394822,2.17846 z"
               style="opacity:0.95999995;fill:#374548;fill-opacity:1;stroke:none;stroke-width:0;stroke-miterlimit:4;stroke-dasharray:none;stroke-dashoffset:0;stroke-opacity:1" />
            <path
               inkscape:original-d="m 124.38487,530.23448 c 0,0 -0.81193,4.20169 -0.81193,4.20169 0,0 -1.4e-4,-10e-6 -4.3e-4,-2e-5 -0.14735,-0.005 -49.228639,-1.62126 -49.228639,-1.62126 0,0 1.47e-4,-10e-6 4.4e-4,-2e-5 0.149777,-0.008 50.040559,-2.58039 50.040559,-2.58039"
               inkscape:connector-curvature="0"
               id="path5458"
               d="m 121.74181,545.88099 c 0,0 -1.36741,4.05988 -1.36741,4.05989 0,0 -1.4e-4,-3e-5 -4.3e-4,-8e-5 -1.16202,-0.19147 -11.38182,-1.85187 -24.797834,-4.22796 -12.332708,-2.18422 -24.601566,-4.51289 -24.601566,-4.51289 0,0 1.49e-4,2e-5 4.45e-4,5e-5 1.058582,0.10898 11.766032,1.24601 25.423628,2.50679 12.673667,1.16994 25.343167,2.1742 25.343167,2.1742 z"
               style="opacity:0.95999995;fill:#374548;fill-opacity:1;stroke:none;stroke-width:0;stroke-miterlimit:4;stroke-dasharray:none;stroke-dashoffset:0;stroke-opacity:1" />
            <path
               inkscape:original-d="m 124.20629,526.04492 c 0,0 -0.81192,4.20169 -0.81192,4.20169 0,0 -1.4e-4,-1e-5 -4.1e-4,-2e-5 -0.13998,-0.005 -49.228662,-1.62126 -49.228662,-1.62126 0,0 1.39e-4,-10e-6 4.18e-4,-2e-5 0.142288,-0.007 50.040574,-2.58039 50.040574,-2.58039"
               inkscape:connector-curvature="0"
               id="path5460"
               d="m 122.10643,541.70247 c 0,0 -1.36564,4.06001 -1.36564,4.06001 0,0 -1.4e-4,-3e-5 -4.1e-4,-7e-5 -1.34232,-0.22386 -11.16596,-1.81633 -24.741291,-4.22292 -12.307592,-2.18185 -24.554214,-4.50801 -24.554214,-4.50801 0,0 1.41e-4,10e-6 4.23e-4,4e-5 0.774424,0.0829 12.017685,1.26896 25.369554,2.50138 12.648368,1.16747 25.291578,2.16957 25.291578,2.16957 z"
               style="opacity:0.95999995;fill:#374548;fill-opacity:1;stroke:none;stroke-width:0;stroke-miterlimit:4;stroke-dasharray:none;stroke-dashoffset:0;stroke-opacity:1" />
            <path
               inkscape:original-d="m 124.02772,521.85536 c 0,0 -0.81193,4.20168 -0.81193,4.20168 0,0 -1.3e-4,0 -3.9e-4,-10e-6 -0.13261,-0.004 -49.228675,-1.62126 -49.228675,-1.62126 0,0 1.32e-4,-1e-5 3.96e-4,-2e-5 0.134799,-0.007 50.040599,-2.58039 50.040599,-2.58039"
               inkscape:connector-curvature="0"
               id="path5462"
               d="m 122.47153,537.52398 c 0,0 -1.36389,4.06013 -1.36389,4.06013 0,0 -1.3e-4,-10e-6 -3.9e-4,-6e-5 -0.89327,-0.14413 -11.57963,-1.89191 -24.684838,-4.2175 -12.282469,-2.17959 -24.506819,-4.50349 -24.506819,-4.50349 0,0 1.33e-4,10e-6 3.99e-4,4e-5 0.926161,0.0967 11.833644,1.25117 25.31558,2.49558 12.623068,1.16513 25.239958,2.1653 25.239958,2.1653 z"
               style="opacity:0.95999995;fill:#374548;fill-opacity:1;stroke:none;stroke-width:0;stroke-miterlimit:4;stroke-dasharray:none;stroke-dashoffset:0;stroke-opacity:1" />
            <path
               inkscape:original-d="m 123.84915,517.6658 c 0,0 -0.81193,4.20168 -0.81193,4.20168 0,0 -1.2e-4,0 -3.7e-4,-10e-6 -0.12524,-0.004 -49.228698,-1.62126 -49.228698,-1.62126 0,0 1.25e-4,-10e-6 3.74e-4,-2e-5 0.12731,-0.007 50.040624,-2.58039 50.040624,-2.58039"
               inkscape:connector-curvature="0"
               id="path5464"
               d="m 122.83711,533.34554 c 0,0 -1.36214,4.06026 -1.36214,4.06026 0,0 -1.2e-4,-10e-6 -3.7e-4,-6e-5 -0.99069,-0.16181 -11.44675,-1.87108 -24.628378,-4.21245 -12.257373,-2.1772 -24.459501,-4.4986 -24.459501,-4.4986 0,0 1.27e-4,10e-6 3.77e-4,4e-5 1.209632,0.12254 11.517913,1.22123 25.261647,2.48979 12.597775,1.16278 25.188365,2.16102 25.188365,2.16102 z"
               style="opacity:0.95999995;fill:#374548;fill-opacity:1;stroke:none;stroke-width:0;stroke-miterlimit:4;stroke-dasharray:none;stroke-dashoffset:0;stroke-opacity:1" />
            <path
               inkscape:original-d="m 123.67057,513.47623 c 0,0 -0.81192,4.20169 -0.81192,4.20169 0,0 -1.2e-4,0 -3.5e-4,-10e-6 -0.11788,-0.004 -49.228721,-1.62126 -49.228721,-1.62126 0,0 1.17e-4,-10e-6 3.52e-4,-2e-5 0.119821,-0.006 50.040639,-2.5804 50.040639,-2.5804"
               inkscape:connector-curvature="0"
               id="path5466"
               d="m 123.20314,529.16713 c 0,0 -1.36037,4.0604 -1.36037,4.0604 0,0 -1.2e-4,-10e-6 -3.5e-4,-5e-5 -1.13767,-0.18835 -11.26437,-1.84142 -24.571963,-4.20741 -12.232286,-2.17481 -24.412196,-4.49369 -24.412196,-4.49369 0,0 1.18e-4,0 3.54e-4,3e-5 0.799359,0.0849 11.895818,1.25581 25.207698,2.48435 12.572507,1.16031 25.136827,2.15637 25.136827,2.15637 z"
               style="opacity:0.95999995;fill:#374548;fill-opacity:1;stroke:none;stroke-width:0;stroke-miterlimit:4;stroke-dasharray:none;stroke-dashoffset:0;stroke-opacity:1" />
            <path
               inkscape:original-d="m 123.492,509.28667 c 0,0 -0.81193,4.20169 -0.81193,4.20169 0,0 -1e-4,0 -3.2e-4,-10e-6 -0.11051,-0.004 -49.228744,-1.62126 -49.228744,-1.62126 0,0 1.1e-4,-1e-5 3.3e-4,-2e-5 0.112332,-0.006 50.040664,-2.5804 50.040664,-2.5804"
               inkscape:connector-curvature="0"
               id="path5468"
               d="m 123.56965,524.98877 c 0,0 -1.35863,4.06054 -1.35863,4.06054 0,0 -1e-4,-2e-5 -3.2e-4,-5e-5 -1.38227,-0.2323 -10.9844,-1.79432 -24.515576,-4.20236 -12.207211,-2.17241 -24.364912,-4.48879 -24.364912,-4.48879 0,0 1.11e-4,10e-6 3.32e-4,4e-5 1.027204,0.10561 11.635801,1.23101 25.153847,2.47855 12.547239,1.15795 25.085259,2.15207 25.085259,2.15207 z"
               style="opacity:0.95999995;fill:#374548;fill-opacity:1;stroke:none;stroke-width:0;stroke-miterlimit:4;stroke-dasharray:none;stroke-dashoffset:0;stroke-opacity:1" />
            <path
               inkscape:original-d="m 123.31343,505.09711 c 0,0 -0.81193,4.20169 -0.81193,4.20169 0,0 -10e-5,0 -3e-4,-1e-5 -0.10314,-0.003 -49.228768,-1.62126 -49.228768,-1.62126 0,0 1.03e-4,-10e-6 3.08e-4,-2e-5 0.104844,-0.005 50.04069,-2.5804 50.04069,-2.5804"
               inkscape:connector-curvature="0"
               id="path5470"
               d="m 123.93663,520.81046 c 0,0 -1.35687,4.06066 -1.35687,4.06066 0,0 -10e-5,-10e-6 -3e-4,-5e-5 -0.81555,-0.1313 -11.51595,-1.89117 -24.459295,-4.19692 -12.182131,-2.17014 -24.317592,-4.48424 -24.317592,-4.48424 0,0 1.04e-4,0 3.09e-4,2e-5 0.678372,0.0736 11.952357,1.25992 25.099986,2.47312 12.522002,1.15547 25.033762,2.14741 25.033762,2.14741 z"
               style="opacity:0.95999995;fill:#374548;fill-opacity:1;stroke:none;stroke-width:0;stroke-miterlimit:4;stroke-dasharray:none;stroke-dashoffset:0;stroke-opacity:1" />
            <path
               inkscape:original-d="m 123.13485,500.90755 c 0,0 -0.81192,4.20169 -0.81192,4.20169 0,0 -1e-4,0 -2.8e-4,-10e-6 -0.0958,-0.003 -49.228791,-1.62126 -49.228791,-1.62126 0,0 9.6e-5,-1e-5 2.86e-4,-2e-5 0.09736,-0.005 50.040705,-2.5804 50.040705,-2.5804"
               inkscape:connector-curvature="0"
               id="path5472"
               d="m 124.30407,516.63219 c 0,0 -1.35511,4.06079 -1.35511,4.06079 0,0 -1e-4,-1e-5 -2.8e-4,-4e-5 -0.9262,-0.15141 -11.37004,-1.86794 -24.403003,-4.19186 -12.157072,-2.16775 -24.270332,-4.47933 -24.270332,-4.47933 0,0 9.7e-5,10e-6 2.87e-4,2e-5 0.855493,0.0897 11.743157,1.2398 25.046215,2.46731 12.496743,1.1531 24.982223,2.14311 24.982223,2.14311 z"
               style="opacity:0.95999995;fill:#374548;fill-opacity:1;stroke:none;stroke-width:0;stroke-miterlimit:4;stroke-dasharray:none;stroke-dashoffset:0;stroke-opacity:1" />
            <path
               inkscape:original-d="m 122.95628,496.71799 c 0,0 -0.81192,4.20169 -0.81192,4.20169 0,0 -9e-5,0 -2.6e-4,-1e-5 -0.0884,-0.003 -49.228814,-1.62126 -49.228814,-1.62126 0,0 8.8e-5,-10e-6 2.64e-4,-2e-5 0.08987,-0.005 50.04073,-2.5804 50.04073,-2.5804"
               inkscape:connector-curvature="0"
               id="path5474"
               d="m 124.67199,512.45396 c 0,0 -1.35336,4.06093 -1.35336,4.06093 0,0 -8e-5,-2e-5 -2.5e-4,-5e-5 -1.11404,-0.18532 -11.14696,-1.83087 -24.346741,-4.18679 -12.132031,-2.16535 -24.223111,-4.4744 -24.223111,-4.4744 0,0 8.9e-5,0 2.65e-4,2e-5 1.270946,0.12772 11.295667,1.19769 24.992488,2.46149 12.471509,1.15074 24.930709,2.1388 24.930709,2.1388 z"
               style="opacity:0.95999995;fill:#374548;fill-opacity:1;stroke:none;stroke-width:0;stroke-miterlimit:4;stroke-dasharray:none;stroke-dashoffset:0;stroke-opacity:1" />
            <path
               inkscape:original-d="m 122.77771,492.52843 c 0,0 -0.81193,4.20169 -0.81193,4.20169 0,0 -8e-5,0 -2.4e-4,-10e-6 -0.081,-0.003 -49.228827,-1.62126 -49.228827,-1.62126 0,0 8.1e-5,-1e-5 2.42e-4,-2e-5 0.08238,-0.004 50.040755,-2.5804 50.040755,-2.5804"
               inkscape:connector-curvature="0"
               id="path5476"
               d="m 125.04038,508.27577 c 0,0 -1.35162,4.06106 -1.35162,4.06106 0,0 -7e-5,-10e-6 -2.3e-4,-4e-5 -1.48993,-0.25289 -10.73587,-1.76016 -24.290507,-4.18172 -12.106996,-2.16294 -24.175901,-4.46947 -24.175901,-4.46947 0,0 8.1e-5,0 2.42e-4,2e-5 0.695014,0.0748 11.839454,1.24755 24.938746,2.45604 12.44631,1.14824 24.87927,2.13411 24.87927,2.13411 z"
               style="opacity:0.95999995;fill:#374548;fill-opacity:1;stroke:none;stroke-width:0;stroke-miterlimit:4;stroke-dasharray:none;stroke-dashoffset:0;stroke-opacity:1" />
            <path
               inkscape:original-d="m 122.59913,488.33887 c 0,0 -0.81192,4.20169 -0.81192,4.20169 0,0 -7e-5,0 -2.2e-4,-1e-5 -0.0737,-0.002 -49.22885,-1.62127 -49.22885,-1.62127 0,0 7.4e-5,0 2.2e-4,-1e-5 0.07489,-0.004 50.04077,-2.5804 50.04077,-2.5804"
               inkscape:connector-curvature="0"
               id="path5478"
               d="m 125.40923,504.09763 c 0,0 -1.34986,4.06119 -1.34986,4.06119 0,0 -7e-5,-10e-6 -2.1e-4,-4e-5 -0.71123,-0.11362 -11.47965,-1.8953 -24.234411,-4.17628 -12.081947,-2.16066 -24.128622,-4.46491 -24.128622,-4.46491 0,0 7.3e-5,2e-5 2.18e-4,3e-5 0.996122,0.10227 11.506397,1.21599 24.885095,2.45021 12.42109,1.14588 24.82779,2.1298 24.82779,2.1298 z"
               style="opacity:0.95999995;fill:#374548;fill-opacity:1;stroke:none;stroke-width:0;stroke-miterlimit:4;stroke-dasharray:none;stroke-dashoffset:0;stroke-opacity:1" />
            <path
               inkscape:original-d="m 122.42056,484.14931 c 0,0 -0.81192,4.20169 -0.81192,4.20169 0,0 -7e-5,0 -2e-4,-10e-6 -0.0663,-0.002 -49.228873,-1.62127 -49.228873,-1.62127 0,0 6.6e-5,0 1.98e-4,-10e-6 0.0674,-0.003 50.040795,-2.5804 50.040795,-2.5804"
               inkscape:connector-curvature="0"
               id="path5480"
               d="m 125.77856,499.91952 c 0,0 -1.34811,4.06133 -1.34811,4.06133 0,0 -7e-5,-10e-6 -2e-4,-4e-5 -0.83671,-0.13643 -11.31904,-1.86934 -24.17826,-4.1712 -12.056932,-2.15825 -24.08145,-4.45996 -24.08145,-4.45996 0,0 6.5e-5,10e-6 1.96e-4,2e-5 0.545335,0.0609 11.925128,1.2543 24.831444,2.44476 12.3959,1.14338 24.77638,2.12509 24.77638,2.12509 z"
               style="opacity:0.95999995;fill:#374548;fill-opacity:1;stroke:none;stroke-width:0;stroke-miterlimit:4;stroke-dasharray:none;stroke-dashoffset:0;stroke-opacity:1" />
            <path
               inkscape:original-d="m 122.24199,479.95975 c 0,0 -0.81193,4.20169 -0.81193,4.20169 0,0 -5e-5,0 -1.7e-4,-1e-5 -0.0589,-0.002 -49.228896,-1.62127 -49.228896,-1.62127 0,0 5.9e-5,0 1.76e-4,-1e-5 0.05991,-0.003 50.04082,-2.5804 50.04082,-2.5804"
               inkscape:connector-curvature="0"
               id="path5482"
               d="m 126.14835,495.74146 c 0,0 -1.34637,4.06146 -1.34637,4.06146 0,0 -5e-5,-10e-6 -1.6e-4,-4e-5 -1.09217,-0.18257 -11.02853,-1.82004 -24.12216,-4.16611 -12.03193,-2.15583 -24.034297,-4.45501 -24.034297,-4.45501 0,0 5.8e-5,10e-6 1.75e-4,2e-5 0.748961,0.0794 11.689642,1.23174 24.777882,2.43893 12.37071,1.141 24.72493,2.12075 24.72493,2.12075 z"
               style="opacity:0.95999995;fill:#374548;fill-opacity:1;stroke:none;stroke-width:0;stroke-miterlimit:4;stroke-dasharray:none;stroke-dashoffset:0;stroke-opacity:1" />
            <path
               inkscape:original-d="m 122.06342,475.77019 c 0,0 -0.81193,4.20169 -0.81193,4.20169 0,0 -5e-5,-10e-6 -1.5e-4,-10e-6 -0.0516,-0.002 -49.228919,-1.62127 -49.228919,-1.62127 0,0 5.1e-5,0 1.54e-4,-10e-6 0.05242,-0.003 50.040845,-2.5804 50.040845,-2.5804"
               inkscape:connector-curvature="0"
               id="path5484"
               d="m 126.51862,491.56345 c 0,0 -1.34463,4.06158 -1.34463,4.06158 0,0 -4e-5,-10e-6 -1.4e-4,-3e-5 -1.84254,-0.31756 -10.24324,-1.68192 -24.06613,-4.16103 -12.006926,-2.15341 -23.987124,-4.45004 -23.987124,-4.45004 0,0 5e-5,10e-6 1.52e-4,10e-6 1.548326,0.15283 10.858465,1.15425 24.724362,2.43309 12.34553,1.13862 24.67351,2.11642 24.67351,2.11642 z"
               style="opacity:0.95999995;fill:#374548;fill-opacity:1;stroke:none;stroke-width:0;stroke-miterlimit:4;stroke-dasharray:none;stroke-dashoffset:0;stroke-opacity:1" />
            <path
               inkscape:original-d="m 121.88484,471.58063 c 0,0 -0.81192,4.20169 -0.81192,4.20169 0,0 -5e-5,-1e-5 -1.3e-4,-1e-5 -0.0442,-10e-4 -49.228942,-1.62127 -49.228942,-1.62127 0,0 4.4e-5,0 1.32e-4,-1e-5 0.04493,-0.002 50.04086,-2.5804 50.04086,-2.5804"
               inkscape:connector-curvature="0"
               id="path5486"
               d="m 126.88934,487.38547 c 0,0 -1.34287,4.06172 -1.34287,4.06172 0,0 -5e-5,-2e-5 -1.2e-4,-3e-5 -0.55541,-0.0865 -11.49554,-1.90881 -24.01016,-4.15556 -11.981929,-2.15112 -23.939952,-4.44545 -23.939952,-4.44545 0,0 4.3e-5,0 1.31e-4,10e-6 0.527566,0.0589 11.847299,1.2451 24.670821,2.42761 12.32038,1.13612 24.62215,2.1117 24.62215,2.1117 z"
               style="opacity:0.95999995;fill:#374548;fill-opacity:1;stroke:none;stroke-width:0;stroke-miterlimit:4;stroke-dasharray:none;stroke-dashoffset:0;stroke-opacity:1" />
            <path
               inkscape:original-d="m 121.70627,467.39107 c 0,0 -0.81193,4.20168 -0.81193,4.20168 0,0 -3e-5,0 -1e-4,0 -0.0368,-0.001 -49.228965,-1.62127 -49.228965,-1.62127 0,0 3.7e-5,0 1.1e-4,0 0.03744,-0.002 50.040885,-2.58041 50.040885,-2.58041"
               inkscape:connector-curvature="0"
               id="path5488"
               d="m 127.26054,483.20754 c 0,0 -1.34113,4.06184 -1.34113,4.06184 0,0 -3e-5,0 -1e-4,-1e-5 -0.68183,-0.10958 -11.33419,-1.88262 -23.95417,-4.15047 -11.956957,-2.1487 -23.892851,-4.44048 -23.892851,-4.44048 0,0 3.7e-5,0 1.08e-4,2e-5 0.966257,0.099 11.376884,1.20088 24.617383,2.42176 12.29522,1.13372 24.57076,2.10734 24.57076,2.10734 z"
               style="opacity:0.95999995;fill:#374548;fill-opacity:1;stroke:none;stroke-width:0;stroke-miterlimit:4;stroke-dasharray:none;stroke-dashoffset:0;stroke-opacity:1" />
            <path
               inkscape:original-d="m 121.5277,463.20151 c 0,0 -0.81193,4.20168 -0.81193,4.20168 0,0 -3e-5,0 -9e-5,0 -0.0295,-9.7e-4 -49.228978,-1.62127 -49.228978,-1.62127 0,0 2.9e-5,0 8.8e-5,0 0.02996,-0.002 50.04091,-2.58041 50.04091,-2.58041"
               inkscape:connector-curvature="0"
               id="path5490"
               d="m 127.6322,479.02965 c 1e-5,0 -1.33938,4.06197 -1.33938,4.06197 0,0 -3e-5,0 -9e-5,-10e-6 -0.97814,-0.1632 -11.00309,-1.82583 -23.89825,-4.14536 -11.931987,-2.14627 -23.84573,-4.43551 -23.84573,-4.43551 0,0 2.8e-5,10e-6 8.5e-5,2e-5 -2.905393,-0.25821 15.216864,1.55408 24.563985,2.41591 12.27008,1.13134 24.51938,2.10298 24.51938,2.10298 z"
               style="opacity:0.95999995;fill:#374548;fill-opacity:1;stroke:none;stroke-width:0;stroke-miterlimit:4;stroke-dasharray:none;stroke-dashoffset:0;stroke-opacity:1" />
            <path
               inkscape:original-d="m 121.34912,459.01194 c 0,0 -0.81192,4.20169 -0.81192,4.20169 0,0 -2e-5,0 -7e-5,0 -0.0221,-7.3e-4 -49.229001,-1.62127 -49.229001,-1.62127 0,0 2.2e-5,0 6.6e-5,0 0.02247,-10e-4 50.040925,-2.58042 50.040925,-2.58042"
               inkscape:connector-curvature="0"
               id="path5492"
               d="m 128.00433,474.8518 c 0,0 -1.33763,4.06211 -1.33763,4.06211 0,0 -2e-5,0 -7e-5,-10e-6 -0.98397,-0.16453 -10.96247,-1.82112 -23.84236,-4.14016 -11.907033,-2.14388 -23.798651,-4.43062 -23.798651,-4.43062 0,0 2.1e-5,10e-6 6.4e-5,10e-6 0.509595,0.0569 11.770085,1.23594 24.510577,2.41043 12.24495,1.12881 24.46807,2.09824 24.46807,2.09824 z"
               style="opacity:0.95999995;fill:#374548;fill-opacity:1;stroke:none;stroke-width:0;stroke-miterlimit:4;stroke-dasharray:none;stroke-dashoffset:0;stroke-opacity:1" />
            <path
               inkscape:original-d="m 121.17055,454.82238 c 0,0 -0.81193,4.20169 -0.81193,4.20169 0,0 -1e-5,0 -4e-5,0 -0.0147,-4.8e-4 -49.229024,-1.62127 -49.229024,-1.62127 0,0 1.4e-5,0 4.4e-5,0 0.01498,-7.8e-4 50.04095,-2.58042 50.04095,-2.58042"
               inkscape:connector-curvature="0"
               id="path5494"
               d="m 128.37693,470.67399 c 0,0 -1.3359,4.06225 -1.3359,4.06225 0,0 -1e-5,0 -4e-5,-1e-5 -0.94888,-0.15847 -10.9628,-1.82377 -23.78651,-4.13495 -11.882082,-2.14148 -23.751583,-4.42573 -23.751583,-4.42573 0,0 1.3e-5,1e-5 4.3e-5,1e-5 0.835993,0.0868 11.41206,1.20218 24.45725,2.40465 12.21983,1.12639 24.41674,2.09378 24.41674,2.09378 z"
               style="opacity:0.95999995;fill:#374548;fill-opacity:1;stroke:none;stroke-width:0;stroke-miterlimit:4;stroke-dasharray:none;stroke-dashoffset:0;stroke-opacity:1" />
            <path
               inkscape:original-d="m 120.99198,450.63282 c 0,0 -0.81193,4.20169 -0.81193,4.20169 0,0 -10e-6,0 -2e-5,0 -0.007,-2.4e-4 -49.229048,-1.62127 -49.229048,-1.62127 0,0 8e-6,0 2.2e-5,0 0.0075,-3.9e-4 50.040976,-2.58042 50.040976,-2.58042"
               inkscape:connector-curvature="0"
               id="path5496"
               d="m 128.75,466.49623 c 0,0 -1.33416,4.06238 -1.33416,4.06238 0,0 -1e-5,0 -2e-5,0 -1.08331,-0.183 -10.79338,-1.79582 -23.73059,-4.12974 -11.857184,-2.13908 -23.704648,-4.42083 -23.704648,-4.42083 0,0 8e-6,0 2.2e-5,0 0.824821,0.0857 11.391636,1.19964 24.403956,2.39894 12.19473,1.12394 24.36544,2.08925 24.36544,2.08925 z"
               style="opacity:0.95999995;fill:#374548;fill-opacity:1;stroke:none;stroke-width:0;stroke-miterlimit:4;stroke-dasharray:none;stroke-dashoffset:0;stroke-opacity:1" />
            <path
               inkscape:original-d="m 120.8134,446.44326 c 0,0 -0.81192,4.20169 -0.81192,4.20169 0,0 0,0 0,0 0,0 -49.229071,-1.62127 -49.229071,-1.62127 0,0 0,0 0,0 0,0 50.040991,-2.58042 50.040991,-2.58042"
               inkscape:connector-curvature="0"
               id="path5498"
               d="m 129.12353,462.31851 c 0,0 -1.33241,4.06252 -1.33241,4.06252 0,0 -11.84027,-1.98744 -23.67496,-4.12455 -11.832219,-2.13667 -23.657483,-4.4159 -23.657483,-4.4159 0,0 12.185755,1.27215 24.350693,2.39321 12.16963,1.12149 24.31416,2.08472 24.31416,2.08472 z"
               style="opacity:0.95999995;fill:#374548;fill-opacity:1;stroke:none;stroke-width:0;stroke-miterlimit:4;stroke-dasharray:none;stroke-dashoffset:0;stroke-opacity:1" />
          </g>
        </g>
        <path
           inkscape:connector-curvature="0"
           style="opacity:0.95999995;fill:#2ca089;fill-opacity:1;stroke:#374548;stroke-width:2.00000024;stroke-miterlimit:4;stroke-dasharray:none;stroke-dashoffset:0;stroke-opacity:1"
           d="m 74.817248,271.68898 c 77.415162,-13.10963 155.832122,-18.59035 233.853892,-17.19747 72.23463,1.32635 143.64839,8.15208 213.94475,18.53337 l -16.03727,108.52227 c -66.61894,-9.84957 -133.32273,-16.3011 -199.81484,-17.41077 -71.65692,-1.22252 -143.3371,3.74061 -213.643519,15.64472 z"
           id="rect4241"
           inkscape:path-effect="#path-effect5524"
           inkscape:original-d="m 86.575492,283.60263 426.054238,0 0,109.66146 -426.054238,0 z" />
        <path
           inkscape:original-d="m 509.952,394.46068 -28.79775,18.07866 0.20878,-17.85534 z"
           style="fill:#374548;fill-opacity:1;fill-rule:evenodd;stroke:#000000;stroke-width:1px;stroke-linecap:butt;stroke-linejoin:miter;stroke-opacity:1"
           d="m 503.79412,382.34724 c -10.22816,4.59419 -20.37189,9.26816 -30.42029,14.02574 0.84166,-5.89381 1.68398,-11.78753 2.52696,-17.68116 9.29746,1.14824 18.59555,2.36847 27.89333,3.65542 z"
           id="path5440"
           inkscape:connector-curvature="0"
           inkscape:transform-center-x="-13.45174"
           inkscape:transform-center-y="-1.1742488" />
      </g>
      <g
         transform="translate(0,-14.142136)"
         inkscape:path-effect="#path-effect5521;#path-effect5755"
         id="text5500"
         style="font-style:normal;font-weight:normal;font-size:66.45124817px;line-height:125%;font-family:sans-serif;letter-spacing:0px;word-spacing:0px;fill:#f9f9f9;fill-opacity:1;stroke:#374548;stroke-width:2.00000048;stroke-linecap:butt;stroke-linejoin:miter;stroke-miterlimit:4;stroke-dasharray:none;stroke-opacity:1">
        <path
           inkscape:original-d="m 153.92779,360.1275 -19.07877,0 0,-4.93193 6.32714,0 0,-38.44957 -6.32714,0 0,-4.93193 19.07877,0 0,4.93193 -6.32714,0 0,38.44957 6.32714,0 0,4.93193 z"
           id="path5505"
           style="stroke-width:2.00000048"
           d="m 157.63666,356.47748 c -6.12228,1.00654 -12.23265,2.08452 -18.32989,3.23515 l -0.91011,-4.84723 c 2.0347,-0.38357 4.07081,-0.75911 6.10828,-1.12667 l -6.80003,-37.83479 c -2.13562,0.38247 -4.27015,0.77319 -6.40353,1.17222 l -0.91011,-4.84723 c 6.47113,-1.2092 12.95237,-2.34259 19.44248,-3.40139 l 0.79653,4.8642 c -2.13987,0.34936 -4.27874,0.70689 -6.41656,1.07264 l 6.50188,37.87933 c 2.0402,-0.3514 4.08172,-0.69486 6.12452,-1.03043 z"
           inkscape:connector-curvature="0" />
        <path
           inkscape:original-d="m 201.78697,360.1275 -7.94949,0 -22.90751,-43.21927 0,43.21927 -6.00268,0 0,-48.31343 9.9612,0 20.8958,39.45543 0,-39.45543 6.00268,0 0,48.31343 z"
           id="path5507"
           style="stroke-width:2.00000048"
           d="m 203.91458,350.23245 c -2.57252,0.2732 -5.14352,0.55828 -7.71291,0.85533 -9.05432,-13.43805 -18.47673,-26.73478 -28.2768,-39.87589 l 6.10694,42.744 c -1.93258,0.27692 -3.86409,0.56081 -5.7945,0.8517 l -7.16974,-47.73719 c 3.39366,-0.50811 6.78953,-0.99607 10.18745,-1.46406 8.92493,12.03328 17.5358,24.19499 25.83987,36.47428 l -4.43098,-39.15728 c 2.05229,-0.23197 4.10518,-0.45681 6.15864,-0.67457 z"
           inkscape:connector-curvature="0" />
        <path
           inkscape:original-d="m 253.47488,360.1275 -8.33886,0 -19.11122,-21.51229 -4.80214,5.12661 0,16.38568 -6.42449,0 0,-48.31343 6.42449,0 0,25.21124 23.45911,-25.21124 7.78725,0 -21.57718,22.71283 22.58304,25.6006 z"
           id="path5509"
           style="stroke-width:2.00000048"
           d="m 254.26218,346.386 c -2.71522,0.1284 -5.42942,0.26926 -8.14249,0.42266 -6.62389,-6.79986 -13.39299,-13.52395 -20.31009,-20.16684 -1.46466,1.82653 -2.91974,3.65663 -4.36516,5.49025 l 1.36469,16.30827 c -2.08458,0.17427 -4.16831,0.35616 -6.25115,0.54572 l -4.37484,-48.05382 c 2.20019,-0.20037 4.40092,-0.39272 6.60216,-0.57709 l 2.09974,25.09214 c 7.11566,-9.01804 14.4627,-17.95145 22.03164,-26.79501 2.67185,-0.15361 5.34418,-0.29575 8.01691,-0.42649 -7.03805,7.91657 -13.89413,15.91014 -20.56097,23.97677 8.16967,7.95171 16.13129,16.01586 23.88956,24.18344 z"
           inkscape:connector-curvature="0" />
        <path
           inkscape:original-d="m 295.81808,346.33757 q 0,2.82288 -1.33032,5.58087 -1.29787,2.75798 -3.6665,4.67235 -2.59575,2.0766 -6.06757,3.24469 -3.43937,1.16809 -8.3064,1.16809 -5.22395,0 -9.4096,-0.97341 -4.15321,-0.97341 -8.46864,-2.88777 l 0,-8.04683 0.45425,0 q 3.6665,3.05001 8.46864,4.7048 4.80214,1.65479 9.02024,1.65479 5.97023,0 9.27981,-2.23884 3.34203,-2.23883 3.34203,-5.97023 0,-3.21224 -1.58989,-4.73724 -1.55746,-1.52501 -4.7697,-2.36863 -2.43352,-0.64894 -5.28884,-1.07074 -2.82288,-0.42181 -6.00268,-1.07075 -6.42449,-1.36277 -9.53939,-4.63991 -3.08245,-3.30958 -3.08245,-8.59843 0,-6.06757 5.12661,-9.92875 5.12661,-3.89363 13.0112,-3.89363 5.09417,0 9.34471,0.97341 4.25054,0.97341 7.52768,2.40107 l 0,7.59258 -0.45426,0 q -2.75798,-2.33618 -7.2681,-3.86118 -4.47767,-1.55746 -9.18247,-1.55746 -5.15906,0 -8.30641,2.1415 -3.1149,2.14149 -3.1149,5.51597 0,3.01756 1.55745,4.73725 1.55745,1.71968 5.48353,2.6282 2.0766,0.45425 5.90533,1.10319 3.82874,0.64894 6.48938,1.33033 5.38619,1.42766 8.11173,4.31543 2.72553,2.88778 2.72553,8.07928 z"
           id="path5511"
           style="stroke-width:2.00000048"
           d="m 295.66147,331.59575 c 0.004,1.88124 -0.43311,3.74113 -1.30315,5.58175 -0.84864,1.84051 -2.04581,3.40218 -3.58871,4.68848 -1.69119,1.39562 -3.66361,2.49488 -5.91963,3.3034 -2.23549,0.80847 -4.9343,1.24133 -8.10671,1.31194 -3.40497,0.0758 -6.47725,-0.16111 -9.22801,-0.7207 -2.72935,-0.56022 -5.52641,-1.41943 -8.40088,-2.57568 l -0.33714,-8.03213 c 0.14979,-0.006 0.29959,-0.0125 0.44938,-0.0187 2.50241,1.92976 5.34415,3.39022 8.53217,4.39085 3.18845,1.00075 6.15671,1.4735 8.92293,1.4119 3.91475,-0.0872 6.94292,-0.87613 9.10151,-2.39534 2.17814,-1.51821 3.26532,-3.51522 3.24268,-6.0018 -0.0195,-2.1405 -0.56054,-3.7137 -1.62965,-4.71889 -1.04678,-1.00472 -2.64585,-1.77577 -4.79666,-2.30392 -1.62944,-0.40664 -3.40077,-0.73123 -5.31247,-0.97126 -1.89049,-0.24055 -3.90213,-0.54832 -6.03875,-0.92117 -4.31684,-0.78753 -7.55935,-2.21417 -9.73405,-4.31608 -2.1517,-2.12235 -3.31347,-4.93959 -3.46006,-8.45875 -0.16815,-4.03678 1.432,-7.41734 4.85059,-10.11662 3.41489,-2.71857 7.85433,-4.16022 13.27596,-4.28149 3.50207,-0.0783 6.72168,0.19299 9.64869,0.80524 2.92701,0.61224 5.51646,1.39333 7.76536,2.33458 l 0.0311,7.58901 c -0.1544,6.7e-4 -0.30881,0.001 -0.46322,0.002 -1.88168,-1.54739 -4.36816,-2.81733 -7.45867,-3.79473 -3.06879,-0.99935 -6.2185,-1.46413 -9.43446,-1.39233 -3.52662,0.0788 -6.34818,0.87436 -8.44952,2.3668 -2.08044,1.49262 -3.07365,3.36685 -2.99644,5.6128 0.0691,2.0086 0.65073,3.56733 1.73821,4.67739 1.08835,1.11095 2.96099,1.92563 5.61845,2.4598 1.41176,0.26628 3.39328,0.58068 5.98202,0.96122 2.58065,0.37936 4.76979,0.78867 6.56052,1.21812 3.62845,0.9022 6.35902,2.32312 8.18951,4.23785 1.83217,1.91651 2.74195,4.60632 2.74906,8.06633 z"
           inkscape:connector-curvature="0" />
        <path
           inkscape:original-d="m 343.45013,356.62324 q -1.78458,0.77872 -3.24469,1.46011 -1.42766,0.68138 -3.76384,1.42766 -1.97926,0.61649 -4.31543,1.0383 -2.30373,0.45426 -5.09417,0.45426 -5.2564,0 -9.57183,-1.46011 -4.28299,-1.49256 -7.46279,-4.63991 -3.1149,-3.08245 -4.86703,-7.8197 -1.75214,-4.76969 -1.75214,-11.06439 0,-5.97023 1.68724,-10.67503 1.68724,-4.7048 4.86704,-7.94949 3.08245,-3.14735 7.43034,-4.80214 4.38033,-1.6548 9.70162,-1.6548 3.89363,0 7.75481,0.94096 3.89363,0.94096 8.63087,3.30959 l 0,7.62502 -0.4867,0 q -3.99097,-3.34203 -7.91704,-4.86704 -3.92608,-1.525 -8.40375,-1.525 -3.6665,0 -6.61917,1.20054 -2.92022,1.16808 -5.22395,3.66649 -2.23883,2.43352 -3.50426,6.16492 -1.23299,3.69894 -1.23299,8.56598 0,5.09416 1.36277,8.76066 1.39522,3.6665 3.56916,5.97023 2.27129,2.40107 5.28885,3.56916 3.05001,1.13564 6.42448,1.13564 4.63991,0 8.69577,-1.5899 4.05586,-1.5899 7.59258,-4.76969 l 0.45425,0 0,7.52768 z"
           id="path5513"
           style="stroke-width:2.00000048"
           d="m 342.5428,342.94963 c -1.19455,0.46344 -2.28029,0.902 -3.2561,1.31383 -0.95535,0.4131 -2.20646,0.83545 -3.75467,1.27151 -1.31092,0.35883 -2.73411,0.65068 -4.27043,0.87715 -1.51593,0.24886 -3.1837,0.34416 -5.00594,0.28838 -3.43244,-0.10507 -6.543,-0.66896 -9.34522,-1.70085 -2.78002,-1.05287 -5.19793,-2.63786 -7.26032,-4.76266 -2.01978,-2.08047 -3.60001,-4.70174 -4.73612,-7.8676 -1.13564,-3.18658 -1.70054,-6.87876 -1.67597,-11.07278 0.0233,-3.97958 0.60975,-7.53216 1.777,-10.66018 1.16698,-3.12728 2.84689,-5.7617 5.04627,-7.89775 2.13155,-2.07149 4.70261,-3.63378 7.70838,-4.67708 3.02755,-1.0427 6.37701,-1.51415 10.03274,-1.40477 2.67489,0.08 5.32861,0.48387 7.9539,1.21101 2.64701,0.72783 5.56164,1.95303 8.72571,3.68146 l -0.35686,7.6187 c -0.16512,-0.008 -0.33023,-0.0154 -0.49535,-0.023 -2.60475,-2.35128 -5.2338,-4.08607 -7.87245,-5.20426 -2.63861,-1.11815 -5.49363,-1.72509 -8.55319,-1.81555 -2.50526,-0.0741 -4.77863,0.26843 -6.81247,1.02252 -2.01146,0.73307 -3.81757,1.92002 -5.41399,3.55777 -1.55178,1.59555 -2.77162,3.6319 -3.66208,6.10706 -0.86841,2.45434 -1.31828,5.30247 -1.35982,8.54679 -0.0435,3.39433 0.37535,6.32092 1.24516,8.77659 0.8916,2.45665 2.04124,4.46495 3.4481,6.02601 1.47019,1.62737 3.18645,2.85187 5.15218,3.67712 1.98778,0.80422 4.08624,1.23871 6.30246,1.30564 3.04729,0.092 5.91901,-0.33715 8.62824,-1.29247 2.70893,-0.95522 5.27694,-2.43584 7.71279,-4.4451 0.15012,0.007 0.30024,0.014 0.45036,0.0211 z"
           inkscape:connector-curvature="0" />
        <path
           inkscape:original-d="m 390.69282,360.1275 -6.8463,0 -4.73725,-13.46546 -20.8958,0 -4.73725,13.46546 -6.52182,0 17.58622,-48.31343 8.56598,0 17.58622,48.31343 z m -13.56281,-18.98143 -8.46864,-23.71869 -8.50108,23.71869 16.96972,0 z"
           id="path5515"
           style="stroke-width:2.00000048"
           d="m 388.666,349.71119 c -2.23361,-0.20857 -4.4677,-0.40988 -6.7022,-0.60384 -1.15835,-4.60889 -2.33729,-9.21591 -3.53697,-13.82089 -6.91207,-0.56775 -13.82863,-1.0658 -20.74803,-1.49255 -1.84459,4.38524 -3.66836,8.7752 -5.47114,13.16975 -2.131,-0.12178 -4.26214,-0.23667 -6.39337,-0.34464 6.55703,-15.79796 13.39589,-31.53489 20.50787,-47.20369 2.9332,0.19822 5.86539,0.40879 8.79647,0.63162 4.79308,16.52476 9.30662,33.0825 13.54737,49.66424 z m -11.76253,-20.08591 c -2.18474,-8.11165 -4.43496,-16.21645 -6.75143,-24.31338 -3.46145,7.68268 -6.85835,15.38153 -10.18968,23.0957 5.64958,0.35897 11.29691,0.76514 16.94111,1.21768 z"
           inkscape:connector-curvature="0" />
        <path
           inkscape:original-d="m 429.62908,326.41517 q 0,3.21225 -1.13564,5.97023 -1.10319,2.72554 -3.1149,4.73725 -2.49841,2.49841 -5.90534,3.76384 -3.40692,1.23298 -8.59843,1.23298 l -6.42448,0 0,18.00803 -6.42449,0 0,-48.31343 13.10855,0 q 4.34788,0 7.36545,0.74628 3.01756,0.71383 5.35373,2.27128 2.75799,1.84948 4.25055,4.60746 1.525,2.75799 1.525,6.97608 z m -6.68406,0.16224 q 0,-2.49841 -0.87607,-4.34789 -0.87606,-1.84947 -2.66064,-3.01756 -1.55745,-1.00585 -3.56916,-1.42766 -1.97926,-0.45426 -5.02927,-0.45426 l -6.35959,0 0,19.30591 5.41863,0 q 3.89363,0 6.32715,-0.68139 2.43351,-0.71383 3.95852,-2.23883 1.525,-1.55745 2.14149,-3.27714 0.64894,-1.71969 0.64894,-3.86118 z"
           id="path5517"
           style="stroke-width:2.00000048"
           d="m 431.07549,320.51453 c -0.27674,2.12481 -0.9148,4.04992 -1.90829,5.77648 -0.96912,1.70803 -2.20734,3.14212 -3.71255,4.30464 -1.86955,1.44391 -3.98223,2.44646 -6.34162,3.01199 -2.35771,0.54425 -5.25067,0.61585 -8.69163,0.22852 -2.12883,-0.23963 -4.25836,-0.47287 -6.38854,-0.69966 l -1.90784,17.91977 c -2.09401,-0.22296 -4.18853,-0.4396 -6.28352,-0.6499 l 4.82635,-48.10646 c 4.47404,0.44864 8.9447,0.92523 13.41157,1.42937 2.96274,0.33438 5.44372,0.87707 7.43707,1.61732 1.99652,0.71899 3.72405,1.69495 5.18039,2.92397 1.71859,1.45825 2.9628,3.16702 3.73562,5.12169 0.795,1.95817 1.00645,4.3316 0.64299,7.12227 z m -6.74937,-0.69469 c 0.20507,-1.65418 0.0893,-3.12975 -0.35053,-4.42729 -0.43977,-1.29733 -1.21569,-2.4067 -2.3292,-3.3261 -0.97278,-0.79332 -2.12472,-1.41055 -3.45472,-1.84994 -1.30508,-0.45817 -2.99317,-0.80656 -5.06113,-1.0393 -2.15629,-0.24267 -4.31344,-0.4789 -6.47139,-0.70864 l -2.04534,19.21129 c 1.80595,0.19227 3.61142,0.38915 5.41637,0.59062 2.59442,0.28959 4.72537,0.30815 6.40024,0.0472 1.67667,-0.28228 3.08437,-0.86504 4.22452,-1.75155 1.1427,-0.90797 1.99158,-1.90468 2.54455,-2.99246 0.5746,-1.08492 0.95087,-2.33618 1.12663,-3.75387 z"
           inkscape:connector-curvature="0" />
        <path
           inkscape:original-d="m 469.96058,360.1275 -31.83041,0 0,-48.31343 31.83041,0 0,5.71065 -25.40592,0 0,13.23834 25.40592,0 0,5.71065 -25.40592,0 0,17.94314 25.40592,0 0,5.71065 z"
           id="path5519"
           style="stroke-width:2.00000048"
           d="m 465.97058,359.7957 c -10.29797,-1.71837 -20.62061,-3.29339 -30.96209,-4.71948 l 6.61644,-47.88509 c 10.80444,1.49572 21.58159,3.14916 32.32565,4.95473 l -0.94324,5.63221 C 464.4739,316.34516 455.92,315.0085 447.34861,313.77094 l -1.88949,13.10912 c 8.47088,1.22156 16.92574,2.54068 25.36163,3.95452 l -0.94324,5.63222 c -8.3938,-1.40562 -16.80594,-2.71718 -25.23347,-3.93183 l -2.56101,17.768 c 8.29131,1.19296 16.56922,2.48075 24.83079,3.86052 z"
           inkscape:connector-curvature="0" />
      </g>
    </g>
  </g>
</svg>
